<svg xmlns="http://www.w3.org/2000/svg" viewBox="0 0 800 800"><path d="M 533.3 400.0 L 532.9 403.7 L 531.9 407.4 L 530.2 411.0 L 528.0 414.4 L 525.2 417.7 L 522.2 420.8 L 519.0 423.7 L 515.6 426.4 L 400.0 400.0 L 400.0 400.0 L 400.0 400.0 L 400.0 400.0 L 400.0 400.0 L 400.0 400.0 L 400.0 400.0 L 400.0 400.0 L 400.0 400.0 Z" fill="#E3D5F7"/><path d="M 515.6 426.4 L 512.4 429.0 L 509.4 431.5 L 506.6 434.0 L 504.3 436.5 L 502.4 439.1 L 501.0 441.8 L 500.0 444.8 L 499.5 447.9 L 400.0 400.0 L 400.0 400.0 L 400.0 400.0 L 400.0 400.0 L 400.0 400.0 L 400.0 400.0 L 400.0 400.0 L 400.0 400.0 L 400.0 400.0 Z" fill="#2D341A"/><path d="M 499.5 447.9 L 499.4 451.4 L 499.6 455.1 L 500.0 459.0 L 500.4 463.1 L 500.8 467.4 L 501.1 471.7 L 501.1 476.1 L 500.7 480.3 L 400.0 400.0 L 400.0 400.0 L 400.0 400.0 L 400.0 400.0 L 400.0 400.0 L 400.0 400.0 L 400.0 400.0 L 400.0 400.0 L 400.0 400.0 Z" fill="#E3D5F7"/><path d="M 500.7 480.3 L 499.8 484.3 L 498.5 488.0 L 496.6 491.4 L 494.2 494.2 L 491.4 496.6 L 488.0 498.5 L 484.3 499.8 L 480.3 500.7 L 400.0 400.0 L 400.0 400.0 L 400.0 400.0 L 400.0 400.0 L 400.0 400.0 L 400.0 400.0 L 400.0 400.0 L 400.0 400.0 L 400.0 400.0 Z" fill="#2D341A"/><path d="M 480.3 500.7 L 476.1 501.1 L 471.7 501.1 L 467.4 500.8 L 463.1 500.4 L 459.0 500.0 L 455.1 499.6 L 451.4 499.4 L 447.9 499.5 L 400.0 400.0 L 400.0 400.0 L 400.0 400.0 L 400.0 400.0 L 400.0 400.0 L 400.0 400.0 L 400.0 400.0 L 400.0 400.0 L 400.0 400.0 Z" fill="#E3D5F7"/><path d="M 447.9 499.5 L 444.8 500.0 L 441.8 501.0 L 439.1 502.4 L 436.5 504.3 L 434.0 506.6 L 431.5 509.4 L 429.0 512.4 L 426.4 515.6 L 400.0 400.0 L 400.0 400.0 L 400.0 400.0 L 400.0 400.0 L 400.0 400.0 L 400.0 400.0 L 400.0 400.0 L 400.0 400.0 L 400.0 400.0 Z" fill="#2D341A"/><path d="M 426.4 515.6 L 423.7 519.0 L 420.8 522.2 L 417.7 525.2 L 414.4 528.0 L 411.0 530.2 L 407.4 531.9 L 403.7 532.9 L 400.0 533.3 L 400.0 400.0 L 400.0 400.0 L 400.0 400.0 L 400.0 400.0 L 400.0 400.0 L 400.0 400.0 L 400.0 400.0 L 400.0 400.0 L 400.0 400.0 Z" fill="#E3D5F7"/><path d="M 400.0 533.3 L 396.3 532.9 L 392.6 531.9 L 389.0 530.2 L 385.6 528.0 L 382.3 525.2 L 379.2 522.2 L 376.3 519.0 L 373.6 515.6 L 400.0 400.0 L 400.0 400.0 L 400.0 400.0 L 400.0 400.0 L 400.0 400.0 L 400.0 400.0 L 400.0 400.0 L 400.0 400.0 L 400.0 400.0 Z" fill="#2D341A"/><path d="M 373.6 515.6 L 371.0 512.4 L 368.5 509.4 L 366.0 506.6 L 363.5 504.3 L 360.9 502.4 L 358.2 501.0 L 355.2 500.0 L 352.1 499.5 L 400.0 400.0 L 400.0 400.0 L 400.0 400.0 L 400.0 400.0 L 400.0 400.0 L 400.0 400.0 L 400.0 400.0 L 400.0 400.0 L 400.0 400.0 Z" fill="#E3D5F7"/><path d="M 352.1 499.5 L 348.6 499.4 L 344.9 499.6 L 341.0 500.0 L 336.9 500.4 L 332.6 500.8 L 328.3 501.1 L 323.9 501.1 L 319.7 500.7 L 400.0 400.0 L 400.0 400.0 L 400.0 400.0 L 400.0 400.0 L 400.0 400.0 L 400.0 400.0 L 400.0 400.0 L 400.0 400.0 L 400.0 400.0 Z" fill="#2D341A"/><path d="M 319.7 500.7 L 315.7 499.8 L 312.0 498.5 L 308.6 496.6 L 305.8 494.2 L 303.4 491.4 L 301.5 488.0 L 300.2 484.3 L 299.3 480.3 L 400.0 400.0 L 400.0 400.0 L 400.0 400.0 L 400.0 400.0 L 400.0 400.0 L 400.0 400.0 L 400.0 400.0 L 400.0 400.0 L 400.0 400.0 Z" fill="#E3D5F7"/><path d="M 299.3 480.3 L 298.9 476.1 L 298.9 471.7 L 299.2 467.4 L 299.6 463.1 L 300.0 459.0 L 300.4 455.1 L 300.6 451.4 L 300.5 447.9 L 400.0 400.0 L 400.0 400.0 L 400.0 400.0 L 400.0 400.0 L 400.0 400.0 L 400.0 400.0 L 400.0 400.0 L 400.0 400.0 L 400.0 400.0 Z" fill="#2D341A"/><path d="M 300.5 447.9 L 300.0 444.8 L 299.0 441.8 L 297.6 439.1 L 295.7 436.5 L 293.4 434.0 L 290.6 431.5 L 287.6 429.0 L 284.4 426.4 L 400.0 400.0 L 400.0 400.0 L 400.0 400.0 L 400.0 400.0 L 400.0 400.0 L 400.0 400.0 L 400.0 400.0 L 400.0 400.0 L 400.0 400.0 Z" fill="#E3D5F7"/><path d="M 284.4 426.4 L 281.0 423.7 L 277.8 420.8 L 274.8 417.7 L 272.0 414.4 L 269.8 411.0 L 268.1 407.4 L 267.1 403.7 L 266.7 400.0 L 400.0 400.0 L 400.0 400.0 L 400.0 400.0 L 400.0 400.0 L 400.0 400.0 L 400.0 400.0 L 400.0 400.0 L 400.0 400.0 L 400.0 400.0 Z" fill="#2D341A"/><path d="M 266.7 400.0 L 267.1 396.3 L 268.1 392.6 L 269.8 389.0 L 272.0 385.6 L 274.8 382.3 L 277.8 379.2 L 281.0 376.3 L 284.4 373.6 L 400.0 400.0 L 400.0 400.0 L 400.0 400.0 L 400.0 400.0 L 400.0 400.0 L 400.0 400.0 L 400.0 400.0 L 400.0 400.0 L 400.0 400.0 Z" fill="#E3D5F7"/><path d="M 284.4 373.6 L 287.6 371.0 L 290.6 368.5 L 293.4 366.0 L 295.7 363.5 L 297.6 360.9 L 299.0 358.2 L 300.0 355.2 L 300.5 352.1 L 400.0 400.0 L 400.0 400.0 L 400.0 400.0 L 400.0 400.0 L 400.0 400.0 L 400.0 400.0 L 400.0 400.0 L 400.0 400.0 L 400.0 400.0 Z" fill="#2D341A"/><path d="M 300.5 352.1 L 300.6 348.6 L 300.4 344.9 L 300.0 341.0 L 299.6 336.9 L 299.2 332.6 L 298.9 328.3 L 298.9 323.9 L 299.3 319.7 L 400.0 400.0 L 400.0 400.0 L 400.0 400.0 L 400.0 400.0 L 400.0 400.0 L 400.0 400.0 L 400.0 400.0 L 400.0 400.0 L 400.0 400.0 Z" fill="#E3D5F7"/><path d="M 299.3 319.7 L 300.2 315.7 L 301.5 312.0 L 303.4 308.6 L 305.8 305.8 L 308.6 303.4 L 312.0 301.5 L 315.7 300.2 L 319.7 299.3 L 400.0 400.0 L 400.0 400.0 L 400.0 400.0 L 400.0 400.0 L 400.0 400.0 L 400.0 400.0 L 400.0 400.0 L 400.0 400.0 L 400.0 400.0 Z" fill="#2D341A"/><path d="M 319.7 299.3 L 323.9 298.9 L 328.3 298.9 L 332.6 299.2 L 336.9 299.6 L 341.0 300.0 L 344.9 300.4 L 348.6 300.6 L 352.1 300.5 L 400.0 400.0 L 400.0 400.0 L 400.0 400.0 L 400.0 400.0 L 400.0 400.0 L 400.0 400.0 L 400.0 400.0 L 400.0 400.0 L 400.0 400.0 Z" fill="#E3D5F7"/><path d="M 352.1 300.5 L 355.2 300.0 L 358.2 299.0 L 360.9 297.6 L 363.5 295.7 L 366.0 293.4 L 368.5 290.6 L 371.0 287.6 L 373.6 284.4 L 400.0 400.0 L 400.0 400.0 L 400.0 400.0 L 400.0 400.0 L 400.0 400.0 L 400.0 400.0 L 400.0 400.0 L 400.0 400.0 L 400.0 400.0 Z" fill="#2D341A"/><path d="M 373.6 284.4 L 376.3 281.0 L 379.2 277.8 L 382.3 274.8 L 385.6 272.0 L 389.0 269.8 L 392.6 268.1 L 396.3 267.1 L 400.0 266.7 L 400.0 400.0 L 400.0 400.0 L 400.0 400.0 L 400.0 400.0 L 400.0 400.0 L 400.0 400.0 L 400.0 400.0 L 400.0 400.0 L 400.0 400.0 Z" fill="#E3D5F7"/><path d="M 400.0 266.7 L 403.7 267.1 L 407.4 268.1 L 411.0 269.8 L 414.4 272.0 L 417.7 274.8 L 420.8 277.8 L 423.7 281.0 L 426.4 284.4 L 400.0 400.0 L 400.0 400.0 L 400.0 400.0 L 400.0 400.0 L 400.0 400.0 L 400.0 400.0 L 400.0 400.0 L 400.0 400.0 L 400.0 400.0 Z" fill="#2D341A"/><path d="M 426.4 284.4 L 429.0 287.6 L 431.5 290.6 L 434.0 293.4 L 436.5 295.7 L 439.1 297.6 L 441.8 299.0 L 444.8 300.0 L 447.9 300.5 L 400.0 400.0 L 400.0 400.0 L 400.0 400.0 L 400.0 400.0 L 400.0 400.0 L 400.0 400.0 L 400.0 400.0 L 400.0 400.0 L 400.0 400.0 Z" fill="#E3D5F7"/><path d="M 447.9 300.5 L 451.4 300.6 L 455.1 300.4 L 459.0 300.0 L 463.1 299.6 L 467.4 299.2 L 471.7 298.9 L 476.1 298.9 L 480.3 299.3 L 400.0 400.0 L 400.0 400.0 L 400.0 400.0 L 400.0 400.0 L 400.0 400.0 L 400.0 400.0 L 400.0 400.0 L 400.0 400.0 L 400.0 400.0 Z" fill="#2D341A"/><path d="M 480.3 299.3 L 484.3 300.2 L 488.0 301.5 L 491.4 303.4 L 494.2 305.8 L 496.6 308.6 L 498.5 312.0 L 499.8 315.7 L 500.7 319.7 L 400.0 400.0 L 400.0 400.0 L 400.0 400.0 L 400.0 400.0 L 400.0 400.0 L 400.0 400.0 L 400.0 400.0 L 400.0 400.0 L 400.0 400.0 Z" fill="#E3D5F7"/><path d="M 500.7 319.7 L 501.1 323.9 L 501.1 328.3 L 500.8 332.6 L 500.4 336.9 L 500.0 341.0 L 499.6 344.9 L 499.4 348.6 L 499.5 352.1 L 400.0 400.0 L 400.0 400.0 L 400.0 400.0 L 400.0 400.0 L 400.0 400.0 L 400.0 400.0 L 400.0 400.0 L 400.0 400.0 L 400.0 400.0 Z" fill="#2D341A"/><path d="M 499.5 352.1 L 500.0 355.2 L 501.0 358.2 L 502.4 360.9 L 504.3 363.5 L 506.6 366.0 L 509.4 368.5 L 512.4 371.0 L 515.6 373.6 L 400.0 400.0 L 400.0 400.0 L 400.0 400.0 L 400.0 400.0 L 400.0 400.0 L 400.0 400.0 L 400.0 400.0 L 400.0 400.0 L 400.0 400.0 Z" fill="#E3D5F7"/><path d="M 515.6 373.6 L 519.0 376.3 L 522.2 379.2 L 525.2 382.3 L 528.0 385.6 L 530.2 389.0 L 531.9 392.6 L 532.9 396.3 L 533.3 400.0 L 400.0 400.0 L 400.0 400.0 L 400.0 400.0 L 400.0 400.0 L 400.0 400.0 L 400.0 400.0 L 400.0 400.0 L 400.0 400.0 L 400.0 400.0 Z" fill="#2D341A"/><path d="M 637.1 426.7 L 632.1 432.8 L 626.4 438.5 L 620.4 443.8 L 614.3 448.9 L 608.3 453.7 L 602.6 458.4 L 597.6 463.0 L 593.2 467.6 L 504.3 436.5 L 506.6 434.0 L 509.4 431.5 L 512.4 429.0 L 515.6 426.4 L 519.0 423.7 L 522.2 420.8 L 525.2 417.7 L 528.0 414.4 Z" fill="#7A881F"/><path d="M 593.2 467.6 L 589.7 472.4 L 587.1 477.5 L 585.4 482.9 L 584.4 488.8 L 584.2 495.2 L 584.6 502.0 L 585.3 509.3 L 586.1 516.9 L 500.4 463.1 L 500.0 459.0 L 499.6 455.1 L 499.4 451.4 L 499.5 447.9 L 500.0 444.8 L 501.0 441.8 L 502.4 439.1 L 504.3 436.5 Z" fill="#2D341A"/><path d="M 586.1 516.9 L 586.9 524.9 L 587.3 532.9 L 587.3 540.9 L 586.5 548.8 L 585.0 556.2 L 582.5 563.1 L 579.1 569.3 L 574.6 574.6 L 494.2 494.2 L 496.6 491.4 L 498.5 488.0 L 499.8 484.3 L 500.7 480.3 L 501.1 476.1 L 501.1 471.7 L 500.8 467.4 L 500.4 463.1 Z" fill="#7A881F"/><path d="M 574.6 574.6 L 569.3 579.1 L 563.1 582.5 L 556.2 585.0 L 548.8 586.5 L 540.9 587.3 L 532.9 587.3 L 524.9 586.9 L 516.9 586.1 L 463.1 500.4 L 467.4 500.8 L 471.7 501.1 L 476.1 501.1 L 480.3 500.7 L 484.3 499.8 L 488.0 498.5 L 491.4 496.6 L 494.2 494.2 Z" fill="#2D341A"/><path d="M 516.9 586.1 L 509.3 585.3 L 502.0 584.6 L 495.2 584.2 L 488.8 584.4 L 482.9 585.4 L 477.5 587.1 L 472.4 589.7 L 467.6 593.2 L 436.5 504.3 L 439.1 502.4 L 441.8 501.0 L 444.8 500.0 L 447.9 499.5 L 451.4 499.4 L 455.1 499.6 L 459.0 500.0 L 463.1 500.4 Z" fill="#7A881F"/><path d="M 467.6 593.2 L 463.0 597.6 L 458.4 602.6 L 453.7 608.3 L 448.9 614.3 L 443.8 620.4 L 438.5 626.4 L 432.8 632.1 L 426.7 637.1 L 414.4 528.0 L 417.7 525.2 L 420.8 522.2 L 423.7 519.0 L 426.4 515.6 L 429.0 512.4 L 431.5 509.4 L 434.0 506.6 L 436.5 504.3 Z" fill="#2D341A"/><path d="M 426.7 637.1 L 420.3 641.3 L 413.7 644.4 L 406.9 646.3 L 400.0 647.0 L 393.1 646.3 L 386.3 644.4 L 379.7 641.3 L 373.3 637.1 L 385.6 528.0 L 389.0 530.2 L 392.6 531.9 L 396.3 532.9 L 400.0 533.3 L 403.7 532.9 L 407.4 531.9 L 411.0 530.2 L 414.4 528.0 Z" fill="#7A881F"/><path d="M 373.3 637.1 L 367.2 632.1 L 361.5 626.4 L 356.2 620.4 L 351.1 614.3 L 346.3 608.3 L 341.6 602.6 L 337.0 597.6 L 332.4 593.2 L 363.5 504.3 L 366.0 506.6 L 368.5 509.4 L 371.0 512.4 L 373.6 515.6 L 376.3 519.0 L 379.2 522.2 L 382.3 525.2 L 385.6 528.0 Z" fill="#2D341A"/><path d="M 332.4 593.2 L 327.6 589.7 L 322.5 587.1 L 317.1 585.4 L 311.2 584.4 L 304.8 584.2 L 298.0 584.6 L 290.7 585.3 L 283.1 586.1 L 336.9 500.4 L 341.0 500.0 L 344.9 499.6 L 348.6 499.4 L 352.1 499.5 L 355.2 500.0 L 358.2 501.0 L 360.9 502.4 L 363.5 504.3 Z" fill="#7A881F"/><path d="M 283.1 586.1 L 275.1 586.9 L 267.1 587.3 L 259.1 587.3 L 251.2 586.5 L 243.8 585.0 L 236.9 582.5 L 230.7 579.1 L 225.4 574.6 L 305.8 494.2 L 308.6 496.6 L 312.0 498.5 L 315.7 499.8 L 319.7 500.7 L 323.9 501.1 L 328.3 501.1 L 332.6 500.8 L 336.9 500.4 Z" fill="#2D341A"/><path d="M 225.4 574.6 L 220.9 569.3 L 217.5 563.1 L 215.0 556.2 L 213.5 548.8 L 212.7 540.9 L 212.7 532.9 L 213.1 524.9 L 213.9 516.9 L 299.6 463.1 L 299.2 467.4 L 298.9 471.7 L 298.9 476.1 L 299.3 480.3 L 300.2 484.3 L 301.5 488.0 L 303.4 491.4 L 305.8 494.2 Z" fill="#7A881F"/><path d="M 213.9 516.9 L 214.7 509.3 L 215.4 502.0 L 215.8 495.2 L 215.6 488.8 L 214.6 482.9 L 212.9 477.5 L 210.3 472.4 L 206.8 467.6 L 295.7 436.5 L 297.6 439.1 L 299.0 441.8 L 300.0 444.8 L 300.5 447.9 L 300.6 451.4 L 300.4 455.1 L 300.0 459.0 L 299.6 463.1 Z" fill="#2D341A"/><path d="M 206.8 467.6 L 202.4 463.0 L 197.4 458.4 L 191.7 453.7 L 185.7 448.9 L 179.6 443.8 L 173.6 438.5 L 167.9 432.8 L 162.9 426.7 L 272.0 414.4 L 274.8 417.7 L 277.8 420.8 L 281.0 423.7 L 284.4 426.4 L 287.6 429.0 L 290.6 431.5 L 293.4 434.0 L 295.7 436.5 Z" fill="#7A881F"/><path d="M 162.9 426.7 L 158.7 420.3 L 155.6 413.7 L 153.7 406.9 L 153.0 400.0 L 153.7 393.1 L 155.6 386.3 L 158.7 379.7 L 162.9 373.3 L 272.0 385.6 L 269.8 389.0 L 268.1 392.6 L 267.1 396.3 L 266.7 400.0 L 267.1 403.7 L 268.1 407.4 L 269.8 411.0 L 272.0 414.4 Z" fill="#2D341A"/><path d="M 162.9 373.3 L 167.9 367.2 L 173.6 361.5 L 179.6 356.2 L 185.7 351.1 L 191.7 346.3 L 197.4 341.6 L 202.4 337.0 L 206.8 332.4 L 295.7 363.5 L 293.4 366.0 L 290.6 368.5 L 287.6 371.0 L 284.4 373.6 L 281.0 376.3 L 277.8 379.2 L 274.8 382.3 L 272.0 385.6 Z" fill="#7A881F"/><path d="M 206.8 332.4 L 210.3 327.6 L 212.9 322.5 L 214.6 317.1 L 215.6 311.2 L 215.8 304.8 L 215.4 298.0 L 214.7 290.7 L 213.9 283.1 L 299.6 336.9 L 300.0 341.0 L 300.4 344.9 L 300.6 348.6 L 300.5 352.1 L 300.0 355.2 L 299.0 358.2 L 297.6 360.9 L 295.7 363.5 Z" fill="#2D341A"/><path d="M 213.9 283.1 L 213.1 275.1 L 212.7 267.1 L 212.7 259.1 L 213.5 251.2 L 215.0 243.8 L 217.5 236.9 L 220.9 230.7 L 225.4 225.4 L 305.8 305.8 L 303.4 308.6 L 301.5 312.0 L 300.2 315.7 L 299.3 319.7 L 298.9 323.9 L 298.9 328.3 L 299.2 332.6 L 299.6 336.9 Z" fill="#7A881F"/><path d="M 225.4 225.4 L 230.7 220.9 L 236.9 217.5 L 243.8 215.0 L 251.2 213.5 L 259.1 212.7 L 267.1 212.7 L 275.1 213.1 L 283.1 213.9 L 336.9 299.6 L 332.6 299.2 L 328.3 298.9 L 323.9 298.9 L 319.7 299.3 L 315.7 300.2 L 312.0 301.5 L 308.6 303.4 L 305.8 305.8 Z" fill="#2D341A"/><path d="M 283.1 213.9 L 290.7 214.7 L 298.0 215.4 L 304.8 215.8 L 311.2 215.6 L 317.1 214.6 L 322.5 212.9 L 327.6 210.3 L 332.4 206.8 L 363.5 295.7 L 360.9 297.6 L 358.2 299.0 L 355.2 300.0 L 352.1 300.5 L 348.6 300.6 L 344.9 300.4 L 341.0 300.0 L 336.9 299.6 Z" fill="#7A881F"/><path d="M 332.4 206.8 L 337.0 202.4 L 341.6 197.4 L 346.3 191.7 L 351.1 185.7 L 356.2 179.6 L 361.5 173.6 L 367.2 167.9 L 373.3 162.9 L 385.6 272.0 L 382.3 274.8 L 379.2 277.8 L 376.3 281.0 L 373.6 284.4 L 371.0 287.6 L 368.5 290.6 L 366.0 293.4 L 363.5 295.7 Z" fill="#2D341A"/><path d="M 373.3 162.9 L 379.7 158.7 L 386.3 155.6 L 393.1 153.7 L 400.0 153.0 L 406.9 153.7 L 413.7 155.6 L 420.3 158.7 L 426.7 162.9 L 414.4 272.0 L 411.0 269.8 L 407.4 268.1 L 403.7 267.1 L 400.0 266.7 L 396.3 267.1 L 392.6 268.1 L 389.0 269.8 L 385.6 272.0 Z" fill="#7A881F"/><path d="M 426.7 162.9 L 432.8 167.9 L 438.5 173.6 L 443.8 179.6 L 448.9 185.7 L 453.7 191.7 L 458.4 197.4 L 463.0 202.4 L 467.6 206.8 L 436.5 295.7 L 434.0 293.4 L 431.5 290.6 L 429.0 287.6 L 426.4 284.4 L 423.7 281.0 L 420.8 277.8 L 417.7 274.8 L 414.4 272.0 Z" fill="#2D341A"/><path d="M 467.6 206.8 L 472.4 210.3 L 477.5 212.9 L 482.9 214.6 L 488.8 215.6 L 495.2 215.8 L 502.0 215.4 L 509.3 214.7 L 516.9 213.9 L 463.1 299.6 L 459.0 300.0 L 455.1 300.4 L 451.4 300.6 L 447.9 300.5 L 444.8 300.0 L 441.8 299.0 L 439.1 297.6 L 436.5 295.7 Z" fill="#7A881F"/><path d="M 516.9 213.9 L 524.9 213.1 L 532.9 212.7 L 540.9 212.7 L 548.8 213.5 L 556.2 215.0 L 563.1 217.5 L 569.3 220.9 L 574.6 225.4 L 494.2 305.8 L 491.4 303.4 L 488.0 301.5 L 484.3 300.2 L 480.3 299.3 L 476.1 298.9 L 471.7 298.9 L 467.4 299.2 L 463.1 299.6 Z" fill="#2D341A"/><path d="M 574.6 225.4 L 579.1 230.7 L 582.5 236.9 L 585.0 243.8 L 586.5 251.2 L 587.3 259.1 L 587.3 267.1 L 586.9 275.1 L 586.1 283.1 L 500.4 336.9 L 500.8 332.6 L 501.1 328.3 L 501.1 323.9 L 500.7 319.7 L 499.8 315.7 L 498.5 312.0 L 496.6 308.6 L 494.2 305.8 Z" fill="#7A881F"/><path d="M 586.1 283.1 L 585.3 290.7 L 584.6 298.0 L 584.2 304.8 L 584.4 311.2 L 585.4 317.1 L 587.1 322.5 L 589.7 327.6 L 593.2 332.4 L 504.3 363.5 L 502.4 360.9 L 501.0 358.2 L 500.0 355.2 L 499.5 352.1 L 499.4 348.6 L 499.6 344.9 L 500.0 341.0 L 500.4 336.9 Z" fill="#2D341A"/><path d="M 593.2 332.4 L 597.6 337.0 L 602.6 341.6 L 608.3 346.3 L 614.3 351.1 L 620.4 356.2 L 626.4 361.5 L 632.1 367.2 L 637.1 373.3 L 528.0 385.6 L 525.2 382.3 L 522.2 379.2 L 519.0 376.3 L 515.6 373.6 L 512.4 371.0 L 509.4 368.5 L 506.6 366.0 L 504.3 363.5 Z" fill="#7A881F"/><path d="M 637.1 373.3 L 641.3 379.7 L 644.4 386.3 L 646.3 393.1 L 647.0 400.0 L 646.3 406.9 L 644.4 413.7 L 641.3 420.3 L 637.1 426.7 L 528.0 414.4 L 530.2 411.0 L 531.9 407.4 L 532.9 403.7 L 533.3 400.0 L 532.9 396.3 L 531.9 392.6 L 530.2 389.0 L 528.0 385.6 Z" fill="#2D341A"/><path d="M 740.1 477.6 L 730.6 485.3 L 721.6 492.7 L 713.6 500.0 L 706.7 507.3 L 701.1 514.9 L 697.0 523.0 L 694.2 531.7 L 692.8 541.0 L 584.4 488.8 L 585.4 482.9 L 587.1 477.5 L 589.7 472.4 L 593.2 467.6 L 597.6 463.0 L 602.6 458.4 L 608.3 453.7 L 614.3 448.9 Z" fill="#E4CB9F"/><path d="M 692.8 541.0 L 692.4 551.1 L 693.0 561.9 L 694.1 573.5 L 695.4 585.6 L 696.6 598.2 L 697.3 611.0 L 697.3 623.7 L 696.1 636.1 L 586.5 548.8 L 587.3 540.9 L 587.3 532.9 L 586.9 524.9 L 586.1 516.9 L 585.3 509.3 L 584.6 502.0 L 584.2 495.2 L 584.4 488.8 Z" fill="#2D341A"/><path d="M 696.1 636.1 L 693.6 647.9 L 689.7 658.9 L 684.2 668.7 L 677.2 677.2 L 668.7 684.2 L 658.9 689.7 L 647.9 693.6 L 636.1 696.1 L 548.8 586.5 L 556.2 585.0 L 563.1 582.5 L 569.3 579.1 L 574.6 574.6 L 579.1 569.3 L 582.5 563.1 L 585.0 556.2 L 586.5 548.8 Z" fill="#E4CB9F"/><path d="M 636.1 696.1 L 623.7 697.3 L 611.0 697.3 L 598.2 696.6 L 585.6 695.4 L 573.5 694.1 L 561.9 693.0 L 551.1 692.4 L 541.0 692.8 L 488.8 584.4 L 495.2 584.2 L 502.0 584.6 L 509.3 585.3 L 516.9 586.1 L 524.9 586.9 L 532.9 587.3 L 540.9 587.3 L 548.8 586.5 Z" fill="#2D341A"/><path d="M 541.0 692.8 L 531.7 694.2 L 523.0 697.0 L 514.9 701.1 L 507.3 706.7 L 500.0 713.6 L 492.7 721.6 L 485.3 730.6 L 477.6 740.1 L 448.9 614.3 L 453.7 608.3 L 458.4 602.6 L 463.0 597.6 L 467.6 593.2 L 472.4 589.7 L 477.5 587.1 L 482.9 585.4 L 488.8 584.4 Z" fill="#E4CB9F"/><path d="M 477.6 740.1 L 469.6 749.9 L 461.1 759.4 L 452.0 768.4 L 442.4 776.3 L 432.3 782.9 L 421.8 787.9 L 411.0 791.0 L 400.0 792.0 L 400.0 647.0 L 406.9 646.3 L 413.7 644.4 L 420.3 641.3 L 426.7 637.1 L 432.8 632.1 L 438.5 626.4 L 443.8 620.4 L 448.9 614.3 Z" fill="#2D341A"/><path d="M 400.0 792.0 L 389.0 791.0 L 378.2 787.9 L 367.7 782.9 L 357.6 776.3 L 348.0 768.4 L 338.9 759.4 L 330.4 749.9 L 322.4 740.1 L 351.1 614.3 L 356.2 620.4 L 361.5 626.4 L 367.2 632.1 L 373.3 637.1 L 379.7 641.3 L 386.3 644.4 L 393.1 646.3 L 400.0 647.0 Z" fill="#E4CB9F"/><path d="M 322.4 740.1 L 314.7 730.6 L 307.3 721.6 L 300.0 713.6 L 292.7 706.7 L 285.1 701.1 L 277.0 697.0 L 268.3 694.2 L 259.0 692.8 L 311.2 584.4 L 317.1 585.4 L 322.5 587.1 L 327.6 589.7 L 332.4 593.2 L 337.0 597.6 L 341.6 602.6 L 346.3 608.3 L 351.1 614.3 Z" fill="#2D341A"/><path d="M 259.0 692.8 L 248.9 692.4 L 238.1 693.0 L 226.5 694.1 L 214.4 695.4 L 201.8 696.6 L 189.0 697.3 L 176.3 697.3 L 163.9 696.1 L 251.2 586.5 L 259.1 587.3 L 267.1 587.3 L 275.1 586.9 L 283.1 586.1 L 290.7 585.3 L 298.0 584.6 L 304.8 584.2 L 311.2 584.4 Z" fill="#E4CB9F"/><path d="M 163.9 696.1 L 152.1 693.6 L 141.1 689.7 L 131.3 684.2 L 122.8 677.2 L 115.8 668.7 L 110.3 658.9 L 106.4 647.9 L 103.9 636.1 L 213.5 548.8 L 215.0 556.2 L 217.5 563.1 L 220.9 569.3 L 225.4 574.6 L 230.7 579.1 L 236.9 582.5 L 243.8 585.0 L 251.2 586.5 Z" fill="#2D341A"/><path d="M 103.9 636.1 L 102.7 623.7 L 102.7 611.0 L 103.4 598.2 L 104.6 585.6 L 105.9 573.5 L 107.0 561.9 L 107.6 551.1 L 107.2 541.0 L 215.6 488.8 L 215.8 495.2 L 215.4 502.0 L 214.7 509.3 L 213.9 516.9 L 213.1 524.9 L 212.7 532.9 L 212.7 540.9 L 213.5 548.8 Z" fill="#E4CB9F"/><path d="M 107.2 541.0 L 105.8 531.7 L 103.0 523.0 L 98.9 514.9 L 93.3 507.3 L 86.4 500.0 L 78.4 492.7 L 69.4 485.3 L 59.9 477.6 L 185.7 448.9 L 191.7 453.7 L 197.4 458.4 L 202.4 463.0 L 206.8 467.6 L 210.3 472.4 L 212.9 477.5 L 214.6 482.9 L 215.6 488.8 Z" fill="#2D341A"/><path d="M 59.9 477.6 L 50.1 469.6 L 40.6 461.1 L 31.6 452.0 L 23.7 442.4 L 17.1 432.3 L 12.1 421.8 L 9.0 411.0 L 8.0 400.0 L 153.0 400.0 L 153.7 406.9 L 155.6 413.7 L 158.7 420.3 L 162.9 426.7 L 167.9 432.8 L 173.6 438.5 L 179.6 443.8 L 185.7 448.9 Z" fill="#E4CB9F"/><path d="M 8.0 400.0 L 9.0 389.0 L 12.1 378.2 L 17.1 367.7 L 23.7 357.6 L 31.6 348.0 L 40.6 338.9 L 50.1 330.4 L 59.9 322.4 L 185.7 351.1 L 179.6 356.2 L 173.6 361.5 L 167.9 367.2 L 162.9 373.3 L 158.7 379.7 L 155.6 386.3 L 153.7 393.1 L 153.0 400.0 Z" fill="#2D341A"/><path d="M 59.9 322.4 L 69.4 314.7 L 78.4 307.3 L 86.4 300.0 L 93.3 292.7 L 98.9 285.1 L 103.0 277.0 L 105.8 268.3 L 107.2 259.0 L 215.6 311.2 L 214.6 317.1 L 212.9 322.5 L 210.3 327.6 L 206.8 332.4 L 202.4 337.0 L 197.4 341.6 L 191.7 346.3 L 185.7 351.1 Z" fill="#E4CB9F"/><path d="M 107.2 259.0 L 107.6 248.9 L 107.0 238.1 L 105.9 226.5 L 104.6 214.4 L 103.4 201.8 L 102.7 189.0 L 102.7 176.3 L 103.9 163.9 L 213.5 251.2 L 212.7 259.1 L 212.7 267.1 L 213.1 275.1 L 213.9 283.1 L 214.7 290.7 L 215.4 298.0 L 215.8 304.8 L 215.6 311.2 Z" fill="#2D341A"/><path d="M 103.9 163.9 L 106.4 152.1 L 110.3 141.1 L 115.8 131.3 L 122.8 122.8 L 131.3 115.8 L 141.1 110.3 L 152.1 106.4 L 163.9 103.9 L 251.2 213.5 L 243.8 215.0 L 236.9 217.5 L 230.7 220.9 L 225.4 225.4 L 220.9 230.7 L 217.5 236.9 L 215.0 243.8 L 213.5 251.2 Z" fill="#E4CB9F"/><path d="M 163.9 103.9 L 176.3 102.7 L 189.0 102.7 L 201.8 103.4 L 214.4 104.6 L 226.5 105.9 L 238.1 107.0 L 248.9 107.6 L 259.0 107.2 L 311.2 215.6 L 304.8 215.8 L 298.0 215.4 L 290.7 214.7 L 283.1 213.9 L 275.1 213.1 L 267.1 212.7 L 259.1 212.7 L 251.2 213.5 Z" fill="#2D341A"/><path d="M 259.0 107.2 L 268.3 105.8 L 277.0 103.0 L 285.1 98.9 L 292.7 93.3 L 300.0 86.4 L 307.3 78.4 L 314.7 69.4 L 322.4 59.9 L 351.1 185.7 L 346.3 191.7 L 341.6 197.4 L 337.0 202.4 L 332.4 206.8 L 327.6 210.3 L 322.5 212.9 L 317.1 214.6 L 311.2 215.6 Z" fill="#E4CB9F"/><path d="M 322.4 59.9 L 330.4 50.1 L 338.9 40.6 L 348.0 31.6 L 357.6 23.7 L 367.7 17.1 L 378.2 12.1 L 389.0 9.0 L 400.0 8.0 L 400.0 153.0 L 393.1 153.7 L 386.3 155.6 L 379.7 158.7 L 373.3 162.9 L 367.2 167.9 L 361.5 173.6 L 356.2 179.6 L 351.1 185.7 Z" fill="#2D341A"/><path d="M 400.0 8.0 L 411.0 9.0 L 421.8 12.1 L 432.3 17.1 L 442.4 23.7 L 452.0 31.6 L 461.1 40.6 L 469.6 50.1 L 477.6 59.9 L 448.9 185.7 L 443.8 179.6 L 438.5 173.6 L 432.8 167.9 L 426.7 162.9 L 420.3 158.7 L 413.7 155.6 L 406.9 153.7 L 400.0 153.0 Z" fill="#E4CB9F"/><path d="M 477.6 59.9 L 485.3 69.4 L 492.7 78.4 L 500.0 86.4 L 507.3 93.3 L 514.9 98.9 L 523.0 103.0 L 531.7 105.8 L 541.0 107.2 L 488.8 215.6 L 482.9 214.6 L 477.5 212.9 L 472.4 210.3 L 467.6 206.8 L 463.0 202.4 L 458.4 197.4 L 453.7 191.7 L 448.9 185.7 Z" fill="#2D341A"/><path d="M 541.0 107.2 L 551.1 107.6 L 561.9 107.0 L 573.5 105.9 L 585.6 104.6 L 598.2 103.4 L 611.0 102.7 L 623.7 102.7 L 636.1 103.9 L 548.8 213.5 L 540.9 212.7 L 532.9 212.7 L 524.9 213.1 L 516.9 213.9 L 509.3 214.7 L 502.0 215.4 L 495.2 215.8 L 488.8 215.6 Z" fill="#E4CB9F"/><path d="M 636.1 103.9 L 647.9 106.4 L 658.9 110.3 L 668.7 115.8 L 677.2 122.8 L 684.2 131.3 L 689.7 141.1 L 693.6 152.1 L 696.1 163.9 L 586.5 251.2 L 585.0 243.8 L 582.5 236.9 L 579.1 230.7 L 574.6 225.4 L 569.3 220.9 L 563.1 217.5 L 556.2 215.0 L 548.8 213.5 Z" fill="#2D341A"/><path d="M 696.1 163.9 L 697.3 176.3 L 697.3 189.0 L 696.6 201.8 L 695.4 214.4 L 694.1 226.5 L 693.0 238.1 L 692.4 248.9 L 692.8 259.0 L 584.4 311.2 L 584.2 304.8 L 584.6 298.0 L 585.3 290.7 L 586.1 283.1 L 586.9 275.1 L 587.3 267.1 L 587.3 259.1 L 586.5 251.2 Z" fill="#E4CB9F"/><path d="M 692.8 259.0 L 694.2 268.3 L 697.0 277.0 L 701.1 285.1 L 706.7 292.7 L 713.6 300.0 L 721.6 307.3 L 730.6 314.7 L 740.1 322.4 L 614.3 351.1 L 608.3 346.3 L 602.6 341.6 L 597.6 337.0 L 593.2 332.4 L 589.7 327.6 L 587.1 322.5 L 585.4 317.1 L 584.4 311.2 Z" fill="#2D341A"/><path d="M 740.1 322.4 L 749.9 330.4 L 759.4 338.9 L 768.4 348.0 L 776.3 357.6 L 782.9 367.7 L 787.9 378.2 L 791.0 389.0 L 792.0 400.0 L 647.0 400.0 L 646.3 393.1 L 644.4 386.3 L 641.3 379.7 L 637.1 373.3 L 632.1 367.2 L 626.4 361.5 L 620.4 356.2 L 614.3 351.1 Z" fill="#E4CB9F"/><path d="M 792.0 400.0 L 791.0 411.0 L 787.9 421.8 L 782.9 432.3 L 776.3 442.4 L 768.4 452.0 L 759.4 461.1 L 749.9 469.6 L 740.1 477.6 L 614.3 448.9 L 620.4 443.8 L 626.4 438.5 L 632.1 432.8 L 637.1 426.7 L 641.3 420.3 L 644.4 413.7 L 646.3 406.9 L 647.0 400.0 Z" fill="#2D341A"/></svg>