<?xml version="1.0" encoding="UTF-8"?>
<svg xmlns="http://www.w3.org/2000/svg" width="469" height="463" viewBox="0 0 469 463">
  <path d="M 246.00 437.50 L 245.00 437.50 L 244.00 437.50 L 243.00 437.50 L 242.00 437.50 L 241.00 437.50 L 240.00 437.50 L 239.00 437.50 L 238.00 437.50 L 237.00 437.50 L 236.00 437.50 L 235.00 437.50 L 234.00 437.50 L 233.00 437.50 L 232.50 437.00 L 232.00 436.50 L 231.00 436.50 L 230.00 436.50 L 229.00 436.50 L 228.00 436.50 L 227.00 436.50 L 226.00 436.50 L 225.00 436.50 L 224.00 436.50 L 223.00 436.50 L 222.50 436.00 L 222.00 435.50 L 221.00 435.50 L 220.00 435.50 L 219.00 435.50 L 218.00 435.50 L 217.00 435.50 L 216.00 435.50 L 215.50 435.00 L 215.00 434.50 L 214.00 434.50 L 213.00 434.50 L 212.00 434.50 L 211.50 434.00 L 211.00 433.50 L 210.00 433.50 L 209.00 433.50 L 208.00 433.50 L 207.50 433.00 L 207.00 432.50 L 206.00 432.50 L 205.00 432.50 L 204.00 432.50 L 203.50 432.00 L 203.00 431.50 L 202.00 431.50 L 201.00 431.50 L 200.50 431.00 L 200.00 430.50 L 199.00 430.50 L 198.00 430.50 L 197.50 430.00 L 197.00 429.50 L 196.00 429.50 L 195.50 429.00 L 195.00 428.50 L 194.00 428.50 L 193.50 428.00 L 193.00 427.50 L 192.00 427.50 L 191.00 427.50 L 190.50 427.00 L 190.00 426.50 L 189.00 426.50 L 188.50 426.00 L 188.00 425.50 L 187.00 425.50 L 186.50 425.00 L 186.00 424.50 L 185.00 424.50 L 184.50 424.00 L 184.00 423.50 L 183.00 423.50 L 182.50 423.00 L 182.00 422.50 L 181.50 422.00 L 181.00 421.50 L 180.00 421.50 L 179.50 421.00 L 179.00 420.50 L 178.50 420.00 L 178.00 419.50 L 177.00 419.50 L 176.50 419.00 L 176.00 418.50 L 175.50 418.00 L 175.00 417.50 L 174.00 417.50 L 173.50 417.00 L 173.00 416.50 L 172.50 416.00 L 172.00 415.50 L 171.50 415.00 L 171.00 414.50 L 170.00 414.50 L 169.50 414.00 L 169.00 413.50 L 168.50 413.00 L 168.00 412.50 L 167.50 412.00 L 167.00 411.50 L 166.50 411.00 L 166.00 410.50 L 165.50 410.00 L 165.00 409.50 L 164.50 409.00 L 164.00 408.50 L 163.50 408.00 L 163.00 407.50 L 162.50 407.00 L 162.00 406.50 L 161.50 406.00 L 161.00 405.50 L 160.50 405.00 L 160.00 404.50 L 159.50 404.00 L 159.00 403.50 L 158.50 403.00 L 158.00 402.50 L 157.50 402.00 L 157.50 401.00 L 157.00 400.50 L 156.50 400.00 L 156.00 399.50 L 155.50 399.00 L 155.00 398.50 L 154.50 398.00 L 154.00 397.50 L 153.50 397.00 L 153.50 396.00 L 153.00 395.50 L 152.50 395.00 L 152.00 394.50 L 151.50 394.00 L 151.50 393.00 L 151.00 392.50 L 150.50 392.00 L 150.00 391.50 L 149.50 391.00 L 149.50 390.00 L 149.00 389.50 L 148.50 389.00 L 148.50 388.00 L 148.00 387.50 L 147.50 387.00 L 147.50 386.00 L 147.00 385.50 L 146.50 385.00 L 146.50 384.00 L 146.00 383.50 L 145.50 383.00 L 145.50 382.00 L 145.00 381.50 L 144.50 381.00 L 144.50 380.00 L 144.00 379.50 L 143.50 379.00 L 143.50 378.00 L 143.50 377.00 L 143.00 376.50 L 142.50 376.00 L 142.50 375.00 L 142.50 374.00 L 142.00 373.50 L 141.50 373.00 L 141.50 372.00 L 141.50 371.00 L 141.50 370.00 L 141.00 369.50 L 140.50 369.00 L 140.50 368.00 L 140.50 367.00 L 140.50 366.00 L 140.50 365.00 L 140.00 364.50 L 139.50 364.00 L 139.50 363.00 L 139.50 362.00 L 139.50 361.00 L 139.50 360.00 L 139.50 359.00 L 139.50 358.00 L 139.00 357.50 L 138.50 357.00 L 138.50 356.00 L 138.50 355.00 L 138.50 354.00 L 138.50 353.00 L 138.50 352.00 L 138.50 351.00 L 138.50 350.00 L 138.50 349.00 L 138.50 348.00 L 138.50 347.00 L 138.50 346.00 L 139.00 345.50 L 139.50 345.00 L 139.50 344.00 L 139.50 343.00 L 139.50 342.00 L 139.50 341.00 L 139.50 340.00 L 140.00 339.50 L 140.50 339.00 L 140.50 338.00 L 140.50 337.00 L 140.50 336.00 L 141.00 335.50 L 141.50 335.00 L 141.50 334.00 L 141.50 333.00 L 142.00 332.50 L 142.50 332.00 L 142.50 331.00 L 142.50 330.00 L 143.00 329.50 L 143.50 329.00 L 143.50 328.00 L 144.00 327.50 L 144.50 327.00 L 145.00 326.50 L 145.50 326.00 L 145.50 325.00 L 146.00 324.50 L 146.50 324.00 L 147.00 323.50 L 147.50 323.00 L 148.00 322.50 L 148.50 322.00 L 148.50 321.00 L 149.00 320.50 L 149.50 320.00 L 150.00 319.50 L 151.00 319.50 L 151.50 319.00 L 152.00 318.50 L 152.50 318.00 L 153.00 317.50 L 154.00 317.50 L 154.50 317.00 L 155.00 316.50 L 156.00 316.50 L 156.50 316.00 L 157.00 315.50 L 158.00 315.50 L 159.00 315.50 L 160.00 315.50 L 161.00 315.50 L 162.00 315.50 L 163.00 315.50 L 163.50 316.00 L 164.00 316.50 L 165.00 316.50 L 165.50 317.00 L 166.00 317.50 L 166.50 318.00 L 167.00 318.50 L 167.50 319.00 L 167.50 320.00 L 167.50 321.00 L 167.50 322.00 L 167.50 323.00 L 167.50 324.00 L 167.50 325.00 L 167.50 326.00 L 167.50 327.00 L 167.00 327.50 L 166.50 328.00 L 166.50 329.00 L 166.50 330.00 L 166.00 330.50 L 165.50 331.00 L 165.50 332.00 L 165.50 333.00 L 165.50 334.00 L 165.50 335.00 L 165.00 335.50 L 164.50 336.00 L 164.50 337.00 L 164.50 338.00 L 164.50 339.00 L 164.00 339.50 L 163.50 340.00 L 163.50 341.00 L 163.50 342.00 L 163.50 343.00 L 163.50 344.00 L 163.50 345.00 L 163.50 346.00 L 163.50 347.00 L 163.50 348.00 L 163.00 348.50 L 162.50 349.00 L 162.50 350.00 L 162.50 351.00 L 162.50 352.00 L 162.50 353.00 L 162.50 354.00 L 162.50 355.00 L 163.00 355.50 L 163.50 356.00 L 163.50 357.00 L 163.50 358.00 L 163.50 359.00 L 163.50 360.00 L 163.50 361.00 L 163.50 362.00 L 163.50 363.00 L 164.00 363.50 L 164.50 364.00 L 164.50 365.00 L 164.50 366.00 L 164.50 367.00 L 165.00 367.50 L 165.50 368.00 L 165.50 369.00 L 165.50 370.00 L 165.50 371.00 L 166.00 371.50 L 166.50 372.00 L 166.50 373.00 L 166.50 374.00 L 167.00 374.50 L 167.50 375.00 L 167.50 376.00 L 168.00 376.50 L 168.50 377.00 L 168.50 378.00 L 169.00 378.50 L 169.50 379.00 L 169.50 380.00 L 170.00 380.50 L 170.50 381.00 L 170.50 382.00 L 171.00 382.50 L 171.50 383.00 L 172.00 383.50 L 172.50 384.00 L 172.50 385.00 L 173.00 385.50 L 173.50 386.00 L 174.00 386.50 L 174.50 387.00 L 175.00 387.50 L 175.50 388.00 L 175.50 389.00 L 176.00 389.50 L 176.50 390.00 L 177.00 390.50 L 177.50 391.00 L 178.00 391.50 L 178.50 392.00 L 179.00 392.50 L 179.50 393.00 L 180.00 393.50 L 180.50 394.00 L 181.00 394.50 L 181.50 395.00 L 182.00 395.50 L 182.50 396.00 L 183.00 396.50 L 183.50 397.00 L 184.00 397.50 L 184.50 398.00 L 185.00 398.50 L 185.50 399.00 L 186.00 399.50 L 187.00 399.50 L 187.50 400.00 L 188.00 400.50 L 188.50 401.00 L 189.00 401.50 L 190.00 401.50 L 190.50 402.00 L 191.00 402.50 L 191.50 403.00 L 192.00 403.50 L 193.00 403.50 L 193.50 404.00 L 194.00 404.50 L 195.00 404.50 L 195.50 405.00 L 196.00 405.50 L 197.00 405.50 L 197.50 406.00 L 198.00 406.50 L 199.00 406.50 L 199.50 407.00 L 200.00 407.50 L 201.00 407.50 L 201.50 408.00 L 202.00 408.50 L 203.00 408.50 L 203.50 409.00 L 204.00 409.50 L 205.00 409.50 L 206.00 409.50 L 206.50 410.00 L 207.00 410.50 L 208.00 410.50 L 209.00 410.50 L 210.00 410.50 L 210.50 411.00 L 211.00 411.50 L 212.00 411.50 L 213.00 411.50 L 214.00 411.50 L 214.50 412.00 L 215.00 412.50 L 216.00 412.50 L 217.00 412.50 L 218.00 412.50 L 219.00 412.50 L 220.00 412.50 L 220.50 413.00 L 221.00 413.50 L 222.00 413.50 L 223.00 413.50 L 224.00 413.50 L 225.00 413.50 L 226.00 413.50 L 227.00 413.50 L 228.00 413.50 L 229.00 413.50 L 230.00 413.50 L 231.00 413.50 L 232.00 413.50 L 233.00 413.50 L 234.00 413.50 L 235.00 413.50 L 236.00 413.50 L 237.00 413.50 L 238.00 413.50 L 238.50 413.00 L 239.00 412.50 L 240.00 412.50 L 241.00 412.50 L 242.00 412.50 L 243.00 412.50 L 244.00 412.50 L 245.00 412.50 L 245.50 412.00 L 246.00 411.50 L 247.00 411.50 L 248.00 411.50 L 249.00 411.50 L 249.50 411.00 L 250.00 410.50 L 251.00 410.50 L 252.00 410.50 L 253.00 410.50 L 253.50 410.00 L 254.00 409.50 L 255.00 409.50 L 256.00 409.50 L 256.50 409.00 L 257.00 408.50 L 258.00 408.50 L 259.00 408.50 L 259.50 408.00 L 260.00 407.50 L 261.00 407.50 L 261.50 407.00 L 262.00 406.50 L 263.00 406.50 L 263.50 406.00 L 264.00 405.50 L 265.00 405.50 L 265.50 405.00 L 266.00 404.50 L 267.00 404.50 L 267.50 404.00 L 268.00 403.50 L 269.00 403.50 L 269.50 403.00 L 270.00 402.50 L 270.50 402.00 L 271.00 401.50 L 272.00 401.50 L 272.50 401.00 L 273.00 400.50 L 273.50 400.00 L 274.00 399.50 L 275.00 399.50 L 275.50 399.00 L 276.00 398.50 L 276.50 398.00 L 277.00 397.50 L 277.50 397.00 L 278.00 396.50 L 279.00 396.50 L 279.50 396.00 L 280.00 395.50 L 280.50 395.00 L 281.00 394.50 L 281.50 394.00 L 282.00 393.50 L 282.50 393.00 L 283.00 392.50 L 283.50 392.00 L 284.00 391.50 L 284.50 391.00 L 285.00 390.50 L 285.50 390.00 L 286.00 389.50 L 286.50 389.00 L 287.00 388.50 L 287.50 388.00 L 288.00 387.50 L 288.50 387.00 L 289.00 386.50 L 289.50 386.00 L 290.00 385.50 L 290.50 385.00 L 290.50 384.00 L 291.00 383.50 L 291.50 383.00 L 292.00 382.50 L 292.50 382.00 L 292.50 381.00 L 293.00 380.50 L 293.50 380.00 L 294.00 379.50 L 294.50 379.00 L 295.00 378.50 L 295.50 378.00 L 295.50 377.00 L 296.00 376.50 L 296.50 376.00 L 296.50 375.00 L 297.00 374.50 L 297.50 374.00 L 297.50 373.00 L 298.00 372.50 L 298.50 372.00 L 298.50 371.00 L 299.00 370.50 L 299.50 370.00 L 300.00 369.50 L 300.50 369.00 L 300.50 368.00 L 301.00 367.50 L 301.50 367.00 L 301.50 366.00 L 301.50 365.00 L 302.00 364.50 L 302.50 364.00 L 302.50 363.00 L 303.00 362.50 L 303.50 362.00 L 303.50 361.00 L 303.50 360.00 L 304.00 359.50 L 304.50 359.00 L 304.50 358.00 L 305.00 357.50 L 305.50 357.00 L 305.50 356.00 L 305.50 355.00 L 306.00 354.50 L 306.50 354.00 L 306.50 353.00 L 306.50 352.00 L 306.50 351.00 L 306.50 350.00 L 307.00 349.50 L 307.50 349.00 L 307.50 348.00 L 307.50 347.00 L 307.50 346.00 L 308.00 345.50 L 308.50 345.00 L 308.50 344.00 L 308.50 343.00 L 308.50 342.00 L 308.50 341.00 L 309.00 340.50 L 309.50 340.00 L 309.50 339.00 L 309.50 338.00 L 309.50 337.00 L 309.50 336.00 L 309.50 335.00 L 309.50 334.00 L 309.50 333.00 L 309.50 332.00 L 309.50 331.00 L 310.00 330.50 L 310.50 330.00 L 310.50 329.00 L 310.50 328.00 L 310.50 327.00 L 310.50 326.00 L 310.50 325.00 L 310.50 324.00 L 310.50 323.00 L 310.50 322.00 L 310.50 321.00 L 310.50 320.00 L 310.50 319.00 L 310.50 318.00 L 310.00 317.50 L 309.50 317.00 L 309.50 316.00 L 309.50 315.00 L 309.50 314.00 L 309.50 313.00 L 309.50 312.00 L 309.50 311.00 L 309.50 310.00 L 309.50 309.00 L 309.00 308.50 L 308.50 308.00 L 308.50 307.00 L 308.50 306.00 L 308.50 305.00 L 308.50 304.00 L 308.00 303.50 L 307.50 303.00 L 307.50 302.00 L 307.50 301.00 L 307.50 300.00 L 307.00 299.50 L 306.50 299.00 L 306.50 298.00 L 306.50 297.00 L 306.00 296.50 L 305.50 296.00 L 305.50 295.00 L 305.50 294.00 L 305.00 293.50 L 304.50 293.00 L 304.50 292.00 L 304.50 291.00 L 304.00 290.50 L 303.50 290.00 L 303.50 289.00 L 303.00 288.50 L 302.50 288.00 L 302.50 287.00 L 302.50 286.00 L 302.00 285.50 L 301.50 285.00 L 301.50 284.00 L 301.00 283.50 L 300.50 283.00 L 300.00 282.50 L 299.50 282.00 L 299.50 281.00 L 299.00 280.50 L 298.50 280.00 L 298.50 279.00 L 298.00 278.50 L 297.50 278.00 L 297.00 277.50 L 296.50 277.00 L 296.50 276.00 L 296.00 275.50 L 295.50 275.00 L 295.00 274.50 L 294.50 274.00 L 294.50 273.00 L 294.00 272.50 L 293.50 272.00 L 293.00 271.50 L 292.50 271.00 L 292.00 270.50 L 291.50 270.00 L 291.00 269.50 L 290.50 269.00 L 290.50 268.00 L 290.00 267.50 L 289.50 267.00 L 289.00 266.50 L 288.50 266.00 L 288.00 265.50 L 287.50 265.00 L 287.00 264.50 L 286.50 264.00 L 286.00 263.50 L 285.50 263.00 L 285.00 262.50 L 284.50 262.00 L 284.00 261.50 L 283.00 261.50 L 282.50 261.00 L 282.00 260.50 L 281.50 260.00 L 281.00 259.50 L 280.50 259.00 L 280.00 258.50 L 279.50 258.00 L 279.00 257.50 L 278.00 257.50 L 277.50 257.00 L 277.00 256.50 L 276.50 256.00 L 276.00 255.50 L 275.00 255.50 L 274.50 255.00 L 274.00 254.50 L 273.50 254.00 L 273.00 253.50 L 272.00 253.50 L 271.50 253.00 L 271.00 252.50 L 270.00 252.50 L 269.50 252.00 L 269.00 251.50 L 268.00 251.50 L 267.50 251.00 L 267.00 250.50 L 266.00 250.50 L 265.50 250.00 L 265.00 249.50 L 264.00 249.50 L 263.50 249.00 L 263.00 248.50 L 262.00 248.50 L 261.50 248.00 L 261.00 247.50 L 260.00 247.50 L 259.00 247.50 L 258.50 247.00 L 258.00 246.50 L 257.00 246.50 L 256.00 246.50 L 255.50 246.00 L 255.00 245.50 L 254.00 245.50 L 253.00 245.50 L 252.50 245.00 L 252.00 244.50 L 251.00 244.50 L 250.00 244.50 L 249.00 244.50 L 248.50 244.00 L 248.00 243.50 L 247.00 243.50 L 246.00 243.50 L 245.00 243.50 L 244.50 243.00 L 244.00 242.50 L 243.00 242.50 L 242.00 242.50 L 241.00 242.50 L 240.00 242.50 L 239.00 242.50 L 238.00 242.50 L 237.50 242.00 L 237.00 241.50 L 236.00 241.50 L 235.00 241.50 L 234.00 241.50 L 233.00 241.50 L 232.00 241.50 L 231.00 241.50 L 230.00 241.50 L 229.00 241.50 L 228.50 241.00 L 228.00 240.50 L 227.00 240.50 L 226.00 240.50 L 225.00 240.50 L 224.00 240.50 L 223.00 240.50 L 222.00 240.50 L 221.00 240.50 L 220.00 240.50 L 219.00 240.50 L 218.00 240.50 L 217.00 240.50 L 216.00 240.50 L 215.00 240.50 L 214.00 240.50 L 213.00 240.50 L 212.50 241.00 L 212.00 241.50 L 211.00 241.50 L 210.00 241.50 L 209.00 241.50 L 208.00 241.50 L 207.00 241.50 L 206.00 241.50 L 205.00 241.50 L 204.00 241.50 L 203.00 241.50 L 202.00 241.50 L 201.00 241.50 L 200.00 241.50 L 199.50 242.00 L 199.00 242.50 L 198.00 242.50 L 197.00 242.50 L 196.00 242.50 L 195.00 242.50 L 194.00 242.50 L 193.00 242.50 L 192.00 242.50 L 191.50 243.00 L 191.00 243.50 L 190.00 243.50 L 189.00 243.50 L 188.00 243.50 L 187.00 243.50 L 186.00 243.50 L 185.00 243.50 L 184.00 243.50 L 183.50 244.00 L 183.00 244.50 L 182.00 244.50 L 181.00 244.50 L 180.00 244.50 L 179.00 244.50 L 178.00 244.50 L 177.00 244.50 L 176.50 245.00 L 176.00 245.50 L 175.00 245.50 L 174.00 245.50 L 173.00 245.50 L 172.00 245.50 L 171.00 245.50 L 170.50 246.00 L 170.00 246.50 L 169.00 246.50 L 168.00 246.50 L 167.00 246.50 L 166.00 246.50 L 165.50 247.00 L 165.00 247.50 L 164.00 247.50 L 163.00 247.50 L 162.00 247.50 L 161.00 247.50 L 160.00 247.50 L 159.50 248.00 L 159.00 248.50 L 158.00 248.50 L 157.00 248.50 L 156.00 248.50 L 155.00 248.50 L 154.00 248.50 L 153.00 248.50 L 152.00 248.50 L 151.50 249.00 L 151.00 249.50 L 150.00 249.50 L 149.00 249.50 L 148.00 249.50 L 147.00 249.50 L 146.00 249.50 L 145.00 249.50 L 144.00 249.50 L 143.50 250.00 L 143.00 250.50 L 142.00 250.50 L 141.00 250.50 L 140.00 250.50 L 139.00 250.50 L 138.00 250.50 L 137.00 250.50 L 136.00 250.50 L 135.00 250.50 L 134.50 251.00 L 134.00 251.50 L 133.00 251.50 L 132.00 251.50 L 131.00 251.50 L 130.00 251.50 L 129.00 251.50 L 128.00 251.50 L 127.00 251.50 L 126.00 251.50 L 125.00 251.50 L 124.00 251.50 L 123.00 251.50 L 122.00 251.50 L 121.00 251.50 L 120.00 251.50 L 119.50 252.00 L 119.00 252.50 L 118.00 252.50 L 117.00 252.50 L 116.00 252.50 L 115.00 252.50 L 114.00 252.50 L 113.00 252.50 L 112.00 252.50 L 111.00 252.50 L 110.00 252.50 L 109.00 252.50 L 108.00 252.50 L 107.00 252.50 L 106.00 252.50 L 105.00 252.50 L 104.00 252.50 L 103.00 252.50 L 102.00 252.50 L 101.00 252.50 L 100.00 252.50 L 99.00 252.50 L 98.50 252.00 L 98.00 251.50 L 97.00 251.50 L 96.00 251.50 L 95.00 251.50 L 94.00 251.50 L 93.00 251.50 L 92.00 251.50 L 91.00 251.50 L 90.00 251.50 L 89.00 251.50 L 88.50 251.00 L 88.00 250.50 L 87.00 250.50 L 86.00 250.50 L 85.00 250.50 L 84.00 250.50 L 83.00 250.50 L 82.50 250.00 L 82.00 249.50 L 81.00 249.50 L 80.00 249.50 L 79.00 249.50 L 78.00 249.50 L 77.50 249.00 L 77.00 248.50 L 76.00 248.50 L 75.00 248.50 L 74.00 248.50 L 73.50 248.00 L 73.00 247.50 L 72.00 247.50 L 71.00 247.50 L 70.50 247.00 L 70.00 246.50 L 69.00 246.50 L 68.00 246.50 L 67.50 246.00 L 67.00 245.50 L 66.00 245.50 L 65.00 245.50 L 64.50 245.00 L 64.00 244.50 L 63.00 244.50 L 62.50 244.00 L 62.00 243.50 L 61.00 243.50 L 60.00 243.50 L 59.50 243.00 L 59.00 242.50 L 58.00 242.50 L 57.50 242.00 L 57.00 241.50 L 56.00 241.50 L 55.50 241.00 L 55.00 240.50 L 54.50 240.00 L 54.00 239.50 L 53.00 239.50 L 52.50 239.00 L 52.00 238.50 L 51.00 238.50 L 50.50 238.00 L 50.00 237.50 L 49.50 237.00 L 49.00 236.50 L 48.00 236.50 L 47.50 236.00 L 47.00 235.50 L 46.50 235.00 L 46.00 234.50 L 45.50 234.00 L 45.00 233.50 L 44.50 233.00 L 44.00 232.50 L 43.00 232.50 L 42.50 232.00 L 42.00 231.50 L 41.50 231.00 L 41.00 230.50 L 40.50 230.00 L 40.00 229.50 L 39.50 229.00 L 39.00 228.50 L 38.50 228.00 L 38.00 227.50 L 37.50 227.00 L 37.50 226.00 L 37.00 225.50 L 36.50 225.00 L 36.00 224.50 L 35.50 224.00 L 35.00 223.50 L 34.50 223.00 L 34.00 222.50 L 33.50 222.00 L 33.50 221.00 L 33.00 220.50 L 32.50 220.00 L 32.50 219.00 L 32.00 218.50 L 31.50 218.00 L 31.00 217.50 L 30.50 217.00 L 30.50 216.00 L 30.00 215.50 L 29.50 215.00 L 29.50 214.00 L 29.00 213.50 L 28.50 213.00 L 28.50 212.00 L 28.50 211.00 L 28.00 210.50 L 27.50 210.00 L 27.50 209.00 L 27.00 208.50 L 26.50 208.00 L 26.50 207.00 L 26.50 206.00 L 26.50 205.00 L 26.00 204.50 L 25.50 204.00 L 25.50 203.00 L 25.50 202.00 L 25.50 201.00 L 25.50 200.00 L 25.00 199.50 L 24.50 199.00 L 24.50 198.00 L 24.50 197.00 L 24.50 196.00 L 24.50 195.00 L 24.50 194.00 L 24.50 193.00 L 24.50 192.00 L 24.50 191.00 L 24.50 190.00 L 24.50 189.00 L 24.50 188.00 L 24.50 187.00 L 24.50 186.00 L 24.50 185.00 L 24.50 184.00 L 24.50 183.00 L 24.50 182.00 L 24.50 181.00 L 24.50 180.00 L 24.50 179.00 L 24.50 178.00 L 24.50 177.00 L 24.50 176.00 L 25.00 175.50 L 25.50 175.00 L 25.50 174.00 L 25.50 173.00 L 25.50 172.00 L 25.50 171.00 L 25.50 170.00 L 26.00 169.50 L 26.50 169.00 L 26.50 168.00 L 26.50 167.00 L 26.50 166.00 L 27.00 165.50 L 27.50 165.00 L 27.50 164.00 L 27.50 163.00 L 28.00 162.50 L 28.50 162.00 L 28.50 161.00 L 28.50 160.00 L 29.00 159.50 L 29.50 159.00 L 29.50 158.00 L 29.50 157.00 L 30.00 156.50 L 30.50 156.00 L 30.50 155.00 L 30.50 154.00 L 31.00 153.50 L 31.50 153.00 L 31.50 152.00 L 32.00 151.50 L 32.50 151.00 L 32.50 150.00 L 33.00 149.50 L 33.50 149.00 L 33.50 148.00 L 34.00 147.50 L 34.50 147.00 L 34.50 146.00 L 35.00 145.50 L 35.50 145.00 L 35.50 144.00 L 35.50 143.00 L 36.00 142.50 L 36.50 142.00 L 37.00 141.50 L 37.50 141.00 L 37.50 140.00 L 38.00 139.50 L 38.50 139.00 L 38.50 138.00 L 39.00 137.50 L 39.50 137.00 L 39.50 136.00 L 40.00 135.50 L 40.50 135.00 L 40.50 134.00 L 41.00 133.50 L 41.50 133.00 L 42.00 132.50 L 42.50 132.00 L 42.50 131.00 L 43.00 130.50 L 43.50 130.00 L 44.00 129.50 L 44.50 129.00 L 44.50 128.00 L 45.00 127.50 L 45.50 127.00 L 46.00 126.50 L 46.50 126.00 L 47.00 125.50 L 47.50 125.00 L 47.50 124.00 L 48.00 123.50 L 48.50 123.00 L 49.00 122.50 L 49.50 122.00 L 49.50 121.00 L 50.00 120.50 L 50.50 120.00 L 51.00 119.50 L 51.50 119.00 L 52.00 118.50 L 52.50 118.00 L 53.00 117.50 L 53.50 117.00 L 53.50 116.00 L 54.00 115.50 L 54.50 115.00 L 55.00 114.50 L 55.50 114.00 L 56.00 113.50 L 56.50 113.00 L 57.00 112.50 L 57.50 112.00 L 58.00 111.50 L 58.50 111.00 L 58.50 110.00 L 59.00 109.50 L 59.50 109.00 L 60.00 108.50 L 60.50 108.00 L 61.00 107.50 L 61.50 107.00 L 62.00 106.50 L 62.50 106.00 L 63.00 105.50 L 63.50 105.00 L 64.00 104.50 L 64.50 104.00 L 65.00 103.50 L 65.50 103.00 L 66.00 102.50 L 66.50 102.00 L 67.00 101.50 L 67.50 101.00 L 68.00 100.50 L 68.50 100.00 L 69.00 99.50 L 69.50 99.00 L 70.00 98.50 L 70.50 98.00 L 71.00 97.50 L 71.50 97.00 L 72.00 96.50 L 72.50 96.00 L 73.00 95.50 L 73.50 95.00 L 74.00 94.50 L 74.50 94.00 L 75.00 93.50 L 75.50 93.00 L 76.00 92.50 L 76.50 92.00 L 77.00 91.50 L 78.00 91.50 L 78.50 91.00 L 79.00 90.50 L 79.50 90.00 L 80.00 89.50 L 80.50 89.00 L 81.00 88.50 L 81.50 88.00 L 82.00 87.50 L 82.50 87.00 L 83.00 86.50 L 84.00 86.50 L 84.50 86.00 L 85.00 85.50 L 85.50 85.00 L 86.00 84.50 L 86.50 84.00 L 87.00 83.50 L 87.50 83.00 L 88.00 82.50 L 88.50 82.00 L 89.00 81.50 L 90.00 81.50 L 90.50 81.00 L 91.00 80.50 L 91.50 80.00 L 92.00 79.50 L 92.50 79.00 L 93.00 78.50 L 94.00 78.50 L 94.50 78.00 L 95.00 77.50 L 95.50 77.00 L 96.00 76.50 L 96.50 76.00 L 97.00 75.50 L 98.00 75.50 L 98.50 75.00 L 99.00 74.50 L 99.50 74.00 L 100.00 73.50 L 101.00 73.50 L 101.50 73.00 L 102.00 72.50 L 102.50 72.00 L 103.00 71.50 L 104.00 71.50 L 104.50 71.00 L 105.00 70.50 L 105.50 70.00 L 106.00 69.50 L 107.00 69.50 L 107.50 69.00 L 108.00 68.50 L 108.50 68.00 L 109.00 67.50 L 110.00 67.50 L 110.50 67.00 L 111.00 66.50 L 112.00 66.50 L 112.50 66.00 L 113.00 65.50 L 113.50 65.00 L 114.00 64.50 L 115.00 64.50 L 115.50 64.00 L 116.00 63.50 L 117.00 63.50 L 117.50 63.00 L 118.00 62.50 L 118.50 62.00 L 119.00 61.50 L 120.00 61.50 L 120.50 61.00 L 121.00 60.50 L 122.00 60.50 L 122.50 60.00 L 123.00 59.50 L 124.00 59.50 L 124.50 59.00 L 125.00 58.50 L 126.00 58.50 L 126.50 58.00 L 127.00 57.50 L 128.00 57.50 L 128.50 57.00 L 129.00 56.50 L 130.00 56.50 L 130.50 56.00 L 131.00 55.50 L 132.00 55.50 L 132.50 55.00 L 133.00 54.50 L 134.00 54.50 L 134.50 54.00 L 135.00 53.50 L 136.00 53.50 L 136.50 53.00 L 137.00 52.50 L 138.00 52.50 L 138.50 52.00 L 139.00 51.50 L 140.00 51.50 L 140.50 51.00 L 141.00 50.50 L 142.00 50.50 L 142.50 50.00 L 143.00 49.50 L 144.00 49.50 L 144.50 49.00 L 145.00 48.50 L 146.00 48.50 L 147.00 48.50 L 147.50 48.00 L 148.00 47.50 L 149.00 47.50 L 149.50 47.00 L 150.00 46.50 L 151.00 46.50 L 152.00 46.50 L 152.50 46.00 L 153.00 45.50 L 154.00 45.50 L 154.50 45.00 L 155.00 44.50 L 156.00 44.50 L 157.00 44.50 L 157.50 44.00 L 158.00 43.50 L 159.00 43.50 L 159.50 43.00 L 160.00 42.50 L 161.00 42.50 L 162.00 42.50 L 162.50 42.00 L 163.00 41.50 L 164.00 41.50 L 165.00 41.50 L 165.50 41.00 L 166.00 40.50 L 167.00 40.50 L 168.00 40.50 L 168.50 40.00 L 169.00 39.50 L 170.00 39.50 L 171.00 39.50 L 171.50 39.00 L 172.00 38.50 L 173.00 38.50 L 174.00 38.50 L 174.50 38.00 L 175.00 37.50 L 176.00 37.50 L 177.00 37.50 L 177.50 37.00 L 178.00 36.50 L 179.00 36.50 L 180.00 36.50 L 181.00 36.50 L 181.50 36.00 L 182.00 35.50 L 183.00 35.50 L 184.00 35.50 L 185.00 35.50 L 185.50 35.00 L 186.00 34.50 L 187.00 34.50 L 188.00 34.50 L 189.00 34.50 L 189.50 34.00 L 190.00 33.50 L 191.00 33.50 L 192.00 33.50 L 192.50 33.00 L 193.00 32.50 L 194.00 32.50 L 195.00 32.50 L 196.00 32.50 L 197.00 32.50 L 197.50 32.00 L 198.00 31.50 L 199.00 31.50 L 200.00 31.50 L 201.00 31.50 L 201.50 31.00 L 202.00 30.50 L 203.00 30.50 L 204.00 30.50 L 205.00 30.50 L 206.00 30.50 L 206.50 30.00 L 207.00 29.50 L 208.00 29.50 L 209.00 29.50 L 210.00 29.50 L 211.00 29.50 L 211.50 29.00 L 212.00 28.50 L 213.00 28.50 L 214.00 28.50 L 215.00 28.50 L 216.00 28.50 L 217.00 28.50 L 217.50 28.00 L 218.00 27.50 L 219.00 27.50 L 220.00 27.50 L 221.00 27.50 L 222.00 27.50 L 223.00 27.50 L 224.00 27.50 L 224.50 27.00 L 225.00 26.50 L 226.00 26.50 L 227.00 26.50 L 228.00 26.50 L 229.00 26.50 L 230.00 26.50 L 231.00 26.50 L 232.00 26.50 L 233.00 26.50 L 233.50 26.00 L 234.00 25.50 L 235.00 25.50 L 236.00 25.50 L 237.00 25.50 L 238.00 25.50 L 239.00 25.50 L 240.00 25.50 L 241.00 25.50 L 242.00 25.50 L 243.00 25.50 L 244.00 25.50 L 245.00 25.50 L 246.00 25.50 L 247.00 25.50 L 247.50 25.00 L 248.00 24.50 L 249.00 24.50 L 250.00 24.50 L 251.00 24.50 L 252.00 24.50 L 253.00 24.50 L 254.00 24.50 L 255.00 24.50 L 256.00 24.50 L 257.00 24.50 L 258.00 24.50 L 259.00 24.50 L 260.00 24.50 L 261.00 24.50 L 262.00 24.50 L 263.00 24.50 L 264.00 24.50 L 265.00 24.50 L 266.00 24.50 L 267.00 24.50 L 268.00 24.50 L 269.00 24.50 L 270.00 24.50 L 271.00 24.50 L 272.00 24.50 L 273.00 24.50 L 273.50 25.00 L 274.00 25.50 L 274.50 25.00 L 275.00 24.50 L 276.00 24.50 L 276.50 25.00 L 277.00 25.50 L 278.00 25.50 L 279.00 25.50 L 280.00 25.50 L 281.00 25.50 L 282.00 25.50 L 283.00 25.50 L 284.00 25.50 L 285.00 25.50 L 286.00 25.50 L 287.00 25.50 L 288.00 25.50 L 288.50 26.00 L 289.00 26.50 L 290.00 26.50 L 291.00 26.50 L 292.00 26.50 L 293.00 26.50 L 294.00 26.50 L 295.00 26.50 L 296.00 26.50 L 296.50 27.00 L 297.00 27.50 L 298.00 27.50 L 299.00 27.50 L 300.00 27.50 L 301.00 27.50 L 302.00 27.50 L 303.00 27.50 L 303.50 28.00 L 304.00 28.50 L 305.00 28.50 L 306.00 28.50 L 307.00 28.50 L 308.00 28.50 L 309.00 28.50 L 309.50 29.00 L 310.00 29.50 L 311.00 29.50 L 312.00 29.50 L 313.00 29.50 L 313.50 30.00 L 314.00 30.50 L 315.00 30.50 L 316.00 30.50 L 317.00 30.50 L 317.50 31.00 L 318.00 31.50 L 319.00 31.50 L 320.00 31.50 L 321.00 31.50 L 321.50 32.00 L 322.00 32.50 L 323.00 32.50 L 324.00 32.50 L 325.00 32.50 L 325.50 33.00 L 326.00 33.50 L 327.00 33.50 L 328.00 33.50 L 328.50 34.00 L 329.00 34.50 L 330.00 34.50 L 331.00 34.50 L 332.00 34.50 L 332.50 35.00 L 333.00 35.50 L 334.00 35.50 L 335.00 35.50 L 335.50 36.00 L 336.00 36.50 L 337.00 36.50 L 338.00 36.50 L 338.50 37.00 L 339.00 37.50 L 340.00 37.50 L 341.00 37.50 L 341.50 38.00 L 342.00 38.50 L 343.00 38.50 L 344.00 38.50 L 344.50 39.00 L 345.00 39.50 L 346.00 39.50 L 346.50 40.00 L 347.00 40.50 L 348.00 40.50 L 349.00 40.50 L 349.50 41.00 L 350.00 41.50 L 351.00 41.50 L 351.50 42.00 L 352.00 42.50 L 353.00 42.50 L 353.50 43.00 L 354.00 43.50 L 355.00 43.50 L 356.00 43.50 L 356.50 44.00 L 357.00 44.50 L 358.00 44.50 L 358.50 45.00 L 359.00 45.50 L 360.00 45.50 L 360.50 46.00 L 361.00 46.50 L 362.00 46.50 L 362.50 47.00 L 363.00 47.50 L 364.00 47.50 L 364.50 48.00 L 365.00 48.50 L 365.50 49.00 L 366.00 49.50 L 367.00 49.50 L 367.50 50.00 L 368.00 50.50 L 369.00 50.50 L 369.50 51.00 L 370.00 51.50 L 371.00 51.50 L 371.50 52.00 L 372.00 52.50 L 373.00 52.50 L 373.50 53.00 L 374.00 53.50 L 375.00 53.50 L 375.50 54.00 L 376.00 54.50 L 376.50 55.00 L 377.00 55.50 L 378.00 55.50 L 378.50 56.00 L 379.00 56.50 L 379.50 57.00 L 380.00 57.50 L 381.00 57.50 L 381.50 58.00 L 382.00 58.50 L 383.00 58.50 L 383.50 59.00 L 384.00 59.50 L 384.50 60.00 L 385.00 60.50 L 385.50 61.00 L 386.00 61.50 L 387.00 61.50 L 387.50 62.00 L 388.00 62.50 L 388.50 63.00 L 389.00 63.50 L 389.50 64.00 L 390.00 64.50 L 391.00 64.50 L 391.50 65.00 L 392.00 65.50 L 392.50 66.00 L 393.00 66.50 L 393.50 67.00 L 394.00 67.50 L 394.50 68.00 L 395.00 68.50 L 396.00 68.50 L 396.50 69.00 L 397.00 69.50 L 397.50 70.00 L 398.00 70.50 L 398.50 71.00 L 399.00 71.50 L 399.50 72.00 L 400.00 72.50 L 400.50 73.00 L 401.00 73.50 L 401.50 74.00 L 402.00 74.50 L 403.00 74.50 L 403.50 75.00 L 404.00 75.50 L 404.50 76.00 L 405.00 76.50 L 405.50 77.00 L 406.00 77.50 L 406.50 78.00 L 407.00 78.50 L 407.50 79.00 L 407.50 80.00 L 408.00 80.50 L 409.00 80.50 L 409.50 81.00 L 409.50 82.00 L 410.00 82.50 L 410.50 83.00 L 411.00 83.50 L 411.50 84.00 L 412.00 84.50 L 412.50 85.00 L 413.00 85.50 L 413.50 86.00 L 414.00 86.50 L 414.50 87.00 L 415.00 87.50 L 415.50 88.00 L 416.00 88.50 L 416.50 89.00 L 417.00 89.50 L 417.50 90.00 L 417.50 91.00 L 418.00 91.50 L 418.50 92.00 L 419.00 92.50 L 419.50 93.00 L 420.00 93.50 L 420.50 94.00 L 420.50 95.00 L 421.00 95.50 L 421.50 96.00 L 422.00 96.50 L 422.50 97.00 L 422.50 98.00 L 423.00 98.50 L 423.50 99.00 L 424.00 99.50 L 424.50 100.00 L 425.00 100.50 L 425.50 101.00 L 425.50 102.00 L 426.00 102.50 L 426.50 103.00 L 426.50 104.00 L 427.00 104.50 L 427.50 105.00 L 428.00 105.50 L 428.50 106.00 L 428.50 107.00 L 429.00 107.50 L 429.50 108.00 L 429.50 109.00 L 430.00 109.50 L 430.50 110.00 L 430.50 111.00 L 431.00 111.50 L 431.50 112.00 L 431.50 113.00 L 432.00 113.50 L 432.50 114.00 L 432.50 115.00 L 433.00 115.50 L 433.50 116.00 L 433.50 117.00 L 434.00 117.50 L 434.50 118.00 L 434.50 119.00 L 434.50 120.00 L 435.00 120.50 L 435.50 121.00 L 435.50 122.00 L 436.00 122.50 L 436.50 123.00 L 436.50 124.00 L 436.50 125.00 L 437.00 125.50 L 437.50 126.00 L 437.50 127.00 L 437.50 128.00 L 438.00 128.50 L 438.50 129.00 L 438.50 130.00 L 438.50 131.00 L 439.00 131.50 L 439.50 132.00 L 439.50 133.00 L 439.50 134.00 L 440.00 134.50 L 440.50 135.00 L 440.50 136.00 L 440.50 137.00 L 440.50 138.00 L 441.00 138.50 L 441.50 139.00 L 441.50 140.00 L 441.50 141.00 L 441.50 142.00 L 441.50 143.00 L 441.50 144.00 L 441.50 145.00 L 442.00 145.50 L 442.50 146.00 L 442.50 147.00 L 442.50 148.00 L 442.50 149.00 L 442.50 150.00 L 442.50 151.00 L 442.50 152.00 L 442.50 153.00 L 443.00 153.50 L 443.50 154.00 L 443.50 155.00 L 443.50 156.00 L 443.50 157.00 L 443.50 158.00 L 443.50 159.00 L 443.50 160.00 L 443.50 161.00 L 443.50 162.00 L 443.00 162.50 L 442.50 163.00 L 442.50 164.00 L 442.50 165.00 L 442.50 166.00 L 442.50 167.00 L 442.50 168.00 L 442.50 169.00 L 442.50 170.00 L 442.00 170.50 L 441.50 171.00 L 441.50 172.00 L 441.50 173.00 L 441.50 174.00 L 441.00 174.50 L 440.50 175.00 L 440.50 176.00 L 440.50 177.00 L 440.00 177.50 L 439.50 178.00 L 439.50 179.00 L 439.00 179.50 L 438.50 180.00 L 438.50 181.00 L 438.00 181.50 L 437.50 182.00 L 437.00 182.50 L 436.50 183.00 L 436.50 184.00 L 436.00 184.50 L 435.50 185.00 L 435.00 185.50 L 434.00 185.50 L 433.50 186.00 L 433.00 186.50 L 432.50 187.00 L 432.00 187.50 L 431.00 187.50 L 430.50 188.00 L 430.00 188.50 L 429.00 188.50 L 428.00 188.50 L 427.00 188.50 L 426.50 188.00 L 426.50 187.00 L 426.50 186.00 L 427.00 185.50 L 427.50 185.00 L 427.50 184.00 L 427.50 183.00 L 428.00 182.50 L 428.50 182.00 L 428.50 181.00 L 429.00 180.50 L 429.50 180.00 L 429.50 179.00 L 429.50 178.00 L 430.00 177.50 L 430.50 177.00 L 430.50 176.00 L 430.50 175.00 L 431.00 174.50 L 431.50 174.00 L 431.50 173.00 L 431.50 172.00 L 431.50 171.00 L 431.50 170.00 L 431.50 169.00 L 431.50 168.00 L 431.50 167.00 L 432.00 166.50 L 432.50 166.00 L 432.50 165.00 L 432.50 164.00 L 432.50 163.00 L 432.50 162.00 L 432.50 161.00 L 432.50 160.00 L 432.50 159.00 L 432.50 158.00 L 432.50 157.00 L 432.50 156.00 L 432.50 155.00 L 432.00 154.50 L 431.50 154.00 L 431.50 153.00 L 431.50 152.00 L 431.50 151.00 L 431.50 150.00 L 431.50 149.00 L 431.50 148.00 L 431.50 147.00 L 431.00 146.50 L 430.50 146.00 L 430.50 145.00 L 430.50 144.00 L 430.50 143.00 L 430.50 142.00 L 430.00 141.50 L 429.50 141.00 L 429.50 140.00 L 429.50 139.00 L 429.50 138.00 L 429.00 137.50 L 428.50 137.00 L 428.50 136.00 L 428.50 135.00 L 428.00 134.50 L 427.50 134.00 L 427.50 133.00 L 427.50 132.00 L 427.00 131.50 L 426.50 131.00 L 426.50 130.00 L 426.00 129.50 L 425.50 129.00 L 425.50 128.00 L 425.50 127.00 L 425.00 126.50 L 424.50 126.00 L 424.50 125.00 L 424.00 124.50 L 423.50 124.00 L 423.50 123.00 L 423.00 122.50 L 422.50 122.00 L 422.50 121.00 L 422.00 120.50 L 421.50 120.00 L 421.50 119.00 L 421.00 118.50 L 420.50 118.00 L 420.50 117.00 L 420.00 116.50 L 419.50 116.00 L 419.50 115.00 L 419.00 114.50 L 418.50 114.00 L 418.00 113.50 L 417.50 113.00 L 417.50 112.00 L 417.00 111.50 L 416.50 111.00 L 416.50 110.00 L 416.00 109.50 L 415.50 109.00 L 415.00 108.50 L 414.50 108.00 L 414.50 107.00 L 414.00 106.50 L 413.50 106.00 L 413.00 105.50 L 412.50 105.00 L 412.00 104.50 L 411.50 104.00 L 411.50 103.00 L 411.00 102.50 L 410.50 102.00 L 410.00 101.50 L 409.50 101.00 L 409.00 100.50 L 408.50 100.00 L 408.00 99.50 L 407.50 99.00 L 407.50 98.00 L 407.00 97.50 L 406.50 97.00 L 406.00 96.50 L 405.50 96.00 L 405.00 95.50 L 404.50 95.00 L 404.00 94.50 L 403.50 94.00 L 403.00 93.50 L 402.50 93.00 L 402.00 92.50 L 401.50 92.00 L 401.00 91.50 L 400.50 91.00 L 400.00 90.50 L 399.50 90.00 L 399.00 89.50 L 398.50 89.00 L 398.00 88.50 L 397.50 88.00 L 397.00 87.50 L 396.50 87.00 L 396.00 86.50 L 395.50 86.00 L 395.00 85.50 L 394.50 85.00 L 394.00 84.50 L 393.50 84.00 L 393.00 83.50 L 392.50 83.00 L 392.00 82.50 L 391.00 82.50 L 390.50 82.00 L 390.00 81.50 L 389.50 81.00 L 389.00 80.50 L 388.50 80.00 L 388.00 79.50 L 387.50 79.00 L 387.00 78.50 L 386.00 78.50 L 385.50 78.00 L 385.00 77.50 L 384.50 77.00 L 384.00 76.50 L 383.50 76.00 L 383.00 75.50 L 382.00 75.50 L 381.50 75.00 L 381.00 74.50 L 380.50 74.00 L 380.00 73.50 L 379.00 73.50 L 378.50 73.00 L 378.00 72.50 L 377.50 72.00 L 377.00 71.50 L 376.00 71.50 L 375.50 71.00 L 375.00 70.50 L 374.50 70.00 L 374.00 69.50 L 373.00 69.50 L 372.50 69.00 L 372.00 68.50 L 371.00 68.50 L 370.50 68.00 L 370.00 67.50 L 369.50 67.00 L 369.00 66.50 L 368.00 66.50 L 367.50 66.00 L 367.00 65.50 L 366.00 65.50 L 365.50 65.00 L 365.00 64.50 L 364.00 64.50 L 363.50 64.00 L 363.00 63.50 L 362.00 63.50 L 361.50 63.00 L 361.00 62.50 L 360.00 62.50 L 359.50 62.00 L 359.00 61.50 L 358.00 61.50 L 357.50 61.00 L 357.00 60.50 L 356.00 60.50 L 355.50 60.00 L 355.00 59.50 L 354.00 59.50 L 353.00 59.50 L 352.50 59.00 L 352.00 58.50 L 351.00 58.50 L 350.50 58.00 L 350.00 57.50 L 349.00 57.50 L 348.50 57.00 L 348.00 56.50 L 347.00 56.50 L 346.00 56.50 L 345.50 56.00 L 345.00 55.50 L 344.00 55.50 L 343.00 55.50 L 342.50 55.00 L 342.00 54.50 L 341.00 54.50 L 340.00 54.50 L 339.50 54.00 L 339.00 53.50 L 338.00 53.50 L 337.50 53.00 L 337.00 52.50 L 336.00 52.50 L 335.00 52.50 L 334.50 52.00 L 334.00 51.50 L 333.00 51.50 L 332.00 51.50 L 331.00 51.50 L 330.50 51.00 L 330.00 50.50 L 329.00 50.50 L 328.00 50.50 L 327.00 50.50 L 326.50 50.00 L 326.00 49.50 L 325.00 49.50 L 324.00 49.50 L 323.00 49.50 L 322.50 49.00 L 322.00 48.50 L 321.00 48.50 L 320.00 48.50 L 319.00 48.50 L 318.50 48.00 L 318.00 47.50 L 317.00 47.50 L 316.00 47.50 L 315.00 47.50 L 314.00 47.50 L 313.00 47.50 L 312.50 47.00 L 312.00 46.50 L 311.00 46.50 L 310.00 46.50 L 309.00 46.50 L 308.00 46.50 L 307.00 46.50 L 306.50 46.00 L 306.00 45.50 L 305.00 45.50 L 304.00 45.50 L 303.00 45.50 L 302.00 45.50 L 301.00 45.50 L 300.00 45.50 L 299.50 45.00 L 299.00 44.50 L 298.00 44.50 L 297.00 44.50 L 296.00 44.50 L 295.00 44.50 L 294.00 44.50 L 293.00 44.50 L 292.00 44.50 L 291.00 44.50 L 290.00 44.50 L 289.00 44.50 L 288.50 44.00 L 288.00 43.50 L 287.00 43.50 L 286.00 43.50 L 285.00 43.50 L 284.00 43.50 L 283.00 43.50 L 282.00 43.50 L 281.00 43.50 L 280.00 43.50 L 279.00 43.50 L 278.00 43.50 L 277.00 43.50 L 276.00 43.50 L 275.00 43.50 L 274.00 43.50 L 273.00 43.50 L 272.00 43.50 L 271.00 43.50 L 270.00 43.50 L 269.00 43.50 L 268.00 43.50 L 267.00 43.50 L 266.00 43.50 L 265.00 43.50 L 264.00 43.50 L 263.00 43.50 L 262.00 43.50 L 261.00 43.50 L 260.00 43.50 L 259.00 43.50 L 258.00 43.50 L 257.00 43.50 L 256.00 43.50 L 255.00 43.50 L 254.00 43.50 L 253.50 44.00 L 253.00 44.50 L 252.00 44.50 L 251.00 44.50 L 250.00 44.50 L 249.00 44.50 L 248.00 44.50 L 247.00 44.50 L 246.00 44.50 L 245.00 44.50 L 244.50 45.00 L 244.00 45.50 L 243.00 45.50 L 242.00 45.50 L 241.00 45.50 L 240.00 45.50 L 239.00 45.50 L 238.00 45.50 L 237.00 45.50 L 236.00 45.50 L 235.50 46.00 L 235.00 46.50 L 234.00 46.50 L 233.00 46.50 L 232.00 46.50 L 231.00 46.50 L 230.00 46.50 L 229.50 47.00 L 229.00 47.50 L 228.00 47.50 L 227.00 47.50 L 226.00 47.50 L 225.00 47.50 L 224.50 48.00 L 224.00 48.50 L 223.00 48.50 L 222.00 48.50 L 221.00 48.50 L 220.00 48.50 L 219.50 49.00 L 219.00 49.50 L 218.00 49.50 L 217.00 49.50 L 216.00 49.50 L 215.50 50.00 L 215.00 50.50 L 214.00 50.50 L 213.00 50.50 L 212.00 50.50 L 211.00 50.50 L 210.50 51.00 L 210.00 51.50 L 209.00 51.50 L 208.00 51.50 L 207.50 52.00 L 207.00 52.50 L 206.00 52.50 L 205.00 52.50 L 204.00 52.50 L 203.50 53.00 L 203.00 53.50 L 202.00 53.50 L 201.00 53.50 L 200.50 54.00 L 200.00 54.50 L 199.00 54.50 L 198.00 54.50 L 197.50 55.00 L 197.00 55.50 L 196.00 55.50 L 195.00 55.50 L 194.50 56.00 L 194.00 56.50 L 193.00 56.50 L 192.00 56.50 L 191.50 57.00 L 191.00 57.50 L 190.00 57.50 L 189.00 57.50 L 188.50 58.00 L 188.00 58.50 L 187.00 58.50 L 186.50 59.00 L 186.00 59.50 L 185.00 59.50 L 184.00 59.50 L 183.50 60.00 L 183.00 60.50 L 182.00 60.50 L 181.50 61.00 L 181.00 61.50 L 180.00 61.50 L 179.00 61.50 L 178.50 62.00 L 178.00 62.50 L 177.00 62.50 L 176.50 63.00 L 176.00 63.50 L 175.00 63.50 L 174.00 63.50 L 173.50 64.00 L 173.00 64.50 L 172.00 64.50 L 171.50 65.00 L 171.00 65.50 L 170.00 65.50 L 169.50 66.00 L 169.00 66.50 L 168.00 66.50 L 167.50 67.00 L 167.00 67.50 L 166.00 67.50 L 165.50 68.00 L 165.00 68.50 L 164.00 68.50 L 163.50 69.00 L 163.00 69.50 L 162.00 69.50 L 161.50 70.00 L 161.00 70.50 L 160.00 70.50 L 159.50 71.00 L 159.00 71.50 L 158.00 71.50 L 157.50 72.00 L 157.00 72.50 L 156.00 72.50 L 155.50 73.00 L 155.00 73.50 L 154.50 74.00 L 154.00 74.50 L 153.00 74.50 L 152.50 75.00 L 152.00 75.50 L 151.00 75.50 L 150.50 76.00 L 150.00 76.50 L 149.50 77.00 L 149.00 77.50 L 148.00 77.50 L 147.50 78.00 L 147.00 78.50 L 146.00 78.50 L 145.50 79.00 L 145.00 79.50 L 144.50 80.00 L 144.00 80.50 L 143.50 81.00 L 143.00 81.50 L 142.00 81.50 L 141.50 82.00 L 141.00 82.50 L 140.00 82.50 L 139.50 83.00 L 139.00 83.50 L 138.50 84.00 L 138.00 84.50 L 137.50 85.00 L 137.00 85.50 L 136.00 85.50 L 135.50 86.00 L 135.00 86.50 L 134.50 87.00 L 134.00 87.50 L 133.50 88.00 L 133.00 88.50 L 132.00 88.50 L 131.50 89.00 L 131.00 89.50 L 130.50 90.00 L 130.00 90.50 L 129.50 91.00 L 129.00 91.50 L 128.50 92.00 L 128.00 92.50 L 127.00 92.50 L 126.50 93.00 L 126.00 93.50 L 125.50 94.00 L 125.00 94.50 L 124.50 95.00 L 124.00 95.50 L 123.50 96.00 L 123.00 96.50 L 122.50 97.00 L 122.00 97.50 L 121.50 98.00 L 121.00 98.50 L 120.50 99.00 L 120.00 99.50 L 119.50 100.00 L 119.00 100.50 L 118.50 101.00 L 118.00 101.50 L 117.50 102.00 L 117.00 102.50 L 116.50 103.00 L 116.00 103.50 L 115.50 104.00 L 115.00 104.50 L 114.50 105.00 L 114.00 105.50 L 113.50 106.00 L 113.00 106.50 L 112.50 107.00 L 112.00 107.50 L 111.50 108.00 L 111.00 108.50 L 110.50 109.00 L 110.50 110.00 L 110.00 110.50 L 109.50 111.00 L 109.00 111.50 L 108.50 112.00 L 108.00 112.50 L 107.50 113.00 L 107.00 113.50 L 106.50 114.00 L 106.50 115.00 L 106.00 115.50 L 105.50 116.00 L 105.00 116.50 L 104.50 117.00 L 104.50 118.00 L 104.00 118.50 L 103.50 119.00 L 103.00 119.50 L 102.50 120.00 L 102.50 121.00 L 102.00 121.50 L 101.50 122.00 L 101.00 122.50 L 100.50 123.00 L 100.50 124.00 L 100.00 124.50 L 99.50 125.00 L 99.50 126.00 L 99.00 126.50 L 98.50 127.00 L 98.50 128.00 L 98.00 128.50 L 97.50 129.00 L 97.50 130.00 L 97.00 130.50 L 96.50 131.00 L 96.50 132.00 L 96.00 132.50 L 95.50 133.00 L 95.50 134.00 L 95.00 134.50 L 94.50 135.00 L 94.50 136.00 L 94.50 137.00 L 94.00 137.50 L 93.50 138.00 L 93.50 139.00 L 93.50 140.00 L 93.00 140.50 L 92.50 141.00 L 92.50 142.00 L 92.50 143.00 L 92.00 143.50 L 91.50 144.00 L 91.50 145.00 L 91.50 146.00 L 91.50 147.00 L 91.00 147.50 L 90.50 148.00 L 90.50 149.00 L 90.50 150.00 L 90.50 151.00 L 90.50 152.00 L 90.50 153.00 L 90.50 154.00 L 90.00 154.50 L 89.50 155.00 L 89.50 156.00 L 89.50 157.00 L 89.50 158.00 L 89.50 159.00 L 90.00 159.50 L 90.50 160.00 L 90.50 161.00 L 90.50 162.00 L 90.50 163.00 L 90.50 164.00 L 90.50 165.00 L 90.50 166.00 L 91.00 166.50 L 91.50 167.00 L 91.50 168.00 L 91.50 169.00 L 91.50 170.00 L 91.50 171.00 L 92.00 171.50 L 92.50 172.00 L 92.50 173.00 L 93.00 173.50 L 93.50 174.00 L 93.50 175.00 L 93.50 176.00 L 94.00 176.50 L 94.50 177.00 L 94.50 178.00 L 95.00 178.50 L 95.50 179.00 L 96.00 179.50 L 96.50 180.00 L 96.50 181.00 L 97.00 181.50 L 97.50 182.00 L 98.00 182.50 L 98.50 183.00 L 99.00 183.50 L 99.50 184.00 L 99.50 185.00 L 100.00 185.50 L 101.00 185.50 L 101.50 186.00 L 102.00 186.50 L 102.50 187.00 L 103.00 187.50 L 103.50 188.00 L 104.00 188.50 L 104.50 189.00 L 105.00 189.50 L 105.50 190.00 L 106.00 190.50 L 107.00 190.50 L 107.50 191.00 L 108.00 191.50 L 108.50 192.00 L 109.00 192.50 L 110.00 192.50 L 110.50 193.00 L 111.00 193.50 L 111.50 194.00 L 112.00 194.50 L 113.00 194.50 L 113.50 195.00 L 114.00 195.50 L 115.00 195.50 L 116.00 195.50 L 116.50 196.00 L 117.00 196.50 L 118.00 196.50 L 118.50 197.00 L 119.00 197.50 L 120.00 197.50 L 121.00 197.50 L 121.50 198.00 L 122.00 198.50 L 123.00 198.50 L 124.00 198.50 L 124.50 199.00 L 125.00 199.50 L 126.00 199.50 L 127.00 199.50 L 128.00 199.50 L 128.50 200.00 L 129.00 200.50 L 130.00 200.50 L 131.00 200.50 L 132.00 200.50 L 133.00 200.50 L 133.50 201.00 L 134.00 201.50 L 135.00 201.50 L 136.00 201.50 L 137.00 201.50 L 138.00 201.50 L 139.00 201.50 L 139.50 202.00 L 140.00 202.50 L 141.00 202.50 L 142.00 202.50 L 143.00 202.50 L 144.00 202.50 L 145.00 202.50 L 146.00 202.50 L 147.00 202.50 L 148.00 202.50 L 149.00 202.50 L 150.00 202.50 L 151.00 202.50 L 152.00 202.50 L 153.00 202.50 L 154.00 202.50 L 155.00 202.50 L 156.00 202.50 L 157.00 202.50 L 158.00 202.50 L 159.00 202.50 L 160.00 202.50 L 161.00 202.50 L 162.00 202.50 L 163.00 202.50 L 164.00 202.50 L 165.00 202.50 L 166.00 202.50 L 167.00 202.50 L 168.00 202.50 L 169.00 202.50 L 170.00 202.50 L 171.00 202.50 L 172.00 202.50 L 173.00 202.50 L 174.00 202.50 L 175.00 202.50 L 176.00 202.50 L 177.00 202.50 L 178.00 202.50 L 179.00 202.50 L 180.00 202.50 L 181.00 202.50 L 182.00 202.50 L 183.00 202.50 L 183.50 202.00 L 184.00 201.50 L 185.00 201.50 L 185.50 202.00 L 186.00 202.50 L 186.50 202.00 L 187.00 201.50 L 188.00 201.50 L 189.00 201.50 L 190.00 201.50 L 191.00 201.50 L 192.00 201.50 L 193.00 201.50 L 194.00 201.50 L 195.00 201.50 L 196.00 201.50 L 197.00 201.50 L 198.00 201.50 L 199.00 201.50 L 200.00 201.50 L 201.00 201.50 L 202.00 201.50 L 202.50 201.00 L 203.00 200.50 L 204.00 200.50 L 205.00 200.50 L 206.00 200.50 L 207.00 200.50 L 208.00 200.50 L 209.00 200.50 L 210.00 200.50 L 211.00 200.50 L 212.00 200.50 L 213.00 200.50 L 214.00 200.50 L 215.00 200.50 L 216.00 200.50 L 217.00 200.50 L 218.00 200.50 L 219.00 200.50 L 220.00 200.50 L 221.00 200.50 L 222.00 200.50 L 223.00 200.50 L 224.00 200.50 L 225.00 200.50 L 226.00 200.50 L 227.00 200.50 L 228.00 200.50 L 229.00 200.50 L 230.00 200.50 L 231.00 200.50 L 232.00 200.50 L 233.00 200.50 L 234.00 200.50 L 235.00 200.50 L 236.00 200.50 L 237.00 200.50 L 238.00 200.50 L 239.00 200.50 L 240.00 200.50 L 241.00 200.50 L 242.00 200.50 L 243.00 200.50 L 244.00 200.50 L 244.50 201.00 L 245.00 201.50 L 246.00 201.50 L 247.00 201.50 L 248.00 201.50 L 249.00 201.50 L 250.00 201.50 L 251.00 201.50 L 251.50 202.00 L 252.00 202.50 L 253.00 202.50 L 254.00 202.50 L 255.00 202.50 L 256.00 202.50 L 257.00 202.50 L 258.00 202.50 L 258.50 203.00 L 259.00 203.50 L 260.00 203.50 L 261.00 203.50 L 262.00 203.50 L 263.00 203.50 L 263.50 204.00 L 264.00 204.50 L 265.00 204.50 L 266.00 204.50 L 267.00 204.50 L 267.50 205.00 L 268.00 205.50 L 269.00 205.50 L 270.00 205.50 L 270.50 206.00 L 271.00 206.50 L 272.00 206.50 L 273.00 206.50 L 273.50 207.00 L 274.00 207.50 L 275.00 207.50 L 276.00 207.50 L 276.50 208.00 L 277.00 208.50 L 278.00 208.50 L 279.00 208.50 L 279.50 209.00 L 280.00 209.50 L 281.00 209.50 L 282.00 209.50 L 282.50 210.00 L 283.00 210.50 L 284.00 210.50 L 285.00 210.50 L 285.50 211.00 L 286.00 211.50 L 287.00 211.50 L 287.50 212.00 L 288.00 212.50 L 289.00 212.50 L 289.50 213.00 L 290.00 213.50 L 291.00 213.50 L 291.50 214.00 L 292.00 214.50 L 293.00 214.50 L 294.00 214.50 L 294.50 215.00 L 295.00 215.50 L 296.00 215.50 L 296.50 216.00 L 297.00 216.50 L 297.50 217.00 L 298.00 217.50 L 299.00 217.50 L 299.50 218.00 L 300.00 218.50 L 301.00 218.50 L 301.50 219.00 L 302.00 219.50 L 303.00 219.50 L 303.50 220.00 L 304.00 220.50 L 304.50 221.00 L 305.00 221.50 L 306.00 221.50 L 306.50 222.00 L 307.00 222.50 L 307.50 223.00 L 308.00 223.50 L 309.00 223.50 L 309.50 224.00 L 310.00 224.50 L 310.50 225.00 L 311.00 225.50 L 312.00 225.50 L 312.50 226.00 L 313.00 226.50 L 313.50 227.00 L 314.00 227.50 L 314.50 228.00 L 315.00 228.50 L 316.00 228.50 L 316.50 229.00 L 317.00 229.50 L 317.50 230.00 L 318.00 230.50 L 318.50 231.00 L 319.00 231.50 L 319.50 232.00 L 320.00 232.50 L 320.50 233.00 L 321.00 233.50 L 321.50 234.00 L 322.00 234.50 L 322.50 235.00 L 323.00 235.50 L 323.50 236.00 L 324.00 236.50 L 324.50 237.00 L 325.00 237.50 L 325.50 238.00 L 326.00 238.50 L 326.50 239.00 L 327.00 239.50 L 327.50 240.00 L 328.00 240.50 L 328.50 241.00 L 329.00 241.50 L 329.50 242.00 L 330.00 242.50 L 330.50 243.00 L 330.50 244.00 L 331.00 244.50 L 331.50 245.00 L 332.00 245.50 L 332.50 246.00 L 333.00 246.50 L 333.50 247.00 L 334.00 247.50 L 334.50 248.00 L 334.50 249.00 L 335.00 249.50 L 335.50 250.00 L 336.00 250.50 L 336.50 251.00 L 337.00 251.50 L 337.50 252.00 L 337.50 253.00 L 338.00 253.50 L 338.50 254.00 L 339.00 254.50 L 339.50 255.00 L 339.50 256.00 L 340.00 256.50 L 340.50 257.00 L 340.50 258.00 L 341.00 258.50 L 341.50 259.00 L 342.00 259.50 L 342.50 260.00 L 342.50 261.00 L 343.00 261.50 L 343.50 262.00 L 343.50 263.00 L 344.00 263.50 L 344.50 264.00 L 344.50 265.00 L 345.00 265.50 L 345.50 266.00 L 345.50 267.00 L 346.00 267.50 L 346.50 268.00 L 346.50 269.00 L 346.50 270.00 L 347.00 270.50 L 347.50 271.00 L 347.50 272.00 L 348.00 272.50 L 348.50 273.00 L 348.50 274.00 L 348.50 275.00 L 349.00 275.50 L 349.50 276.00 L 349.50 277.00 L 350.00 277.50 L 350.50 278.00 L 350.50 279.00 L 350.50 280.00 L 351.00 280.50 L 351.50 281.00 L 351.50 282.00 L 351.50 283.00 L 352.00 283.50 L 352.50 284.00 L 352.50 285.00 L 352.50 286.00 L 353.00 286.50 L 353.50 287.00 L 353.50 288.00 L 353.50 289.00 L 353.50 290.00 L 353.50 291.00 L 353.50 292.00 L 354.00 292.50 L 354.50 293.00 L 354.50 294.00 L 354.50 295.00 L 354.50 296.00 L 354.50 297.00 L 355.00 297.50 L 355.50 298.00 L 355.50 299.00 L 355.50 300.00 L 355.50 301.00 L 355.50 302.00 L 355.50 303.00 L 355.50 304.00 L 355.50 305.00 L 355.50 306.00 L 355.50 307.00 L 356.00 307.50 L 356.50 308.00 L 356.50 309.00 L 356.50 310.00 L 356.50 311.00 L 356.50 312.00 L 356.50 313.00 L 356.50 314.00 L 356.50 315.00 L 356.50 316.00 L 356.50 317.00 L 356.50 318.00 L 356.50 319.00 L 356.50 320.00 L 356.50 321.00 L 356.50 322.00 L 356.50 323.00 L 356.50 324.00 L 356.50 325.00 L 356.50 326.00 L 356.50 327.00 L 356.50 328.00 L 356.00 328.50 L 355.50 329.00 L 355.50 330.00 L 355.50 331.00 L 355.50 332.00 L 355.50 333.00 L 355.50 334.00 L 355.50 335.00 L 355.00 335.50 L 354.50 336.00 L 354.50 337.00 L 354.50 338.00 L 354.50 339.00 L 354.50 340.00 L 354.50 341.00 L 354.00 341.50 L 353.50 342.00 L 353.50 343.00 L 353.50 344.00 L 353.50 345.00 L 353.50 346.00 L 353.00 346.50 L 352.50 347.00 L 352.50 348.00 L 352.50 349.00 L 352.50 350.00 L 352.00 350.50 L 351.50 351.00 L 351.50 352.00 L 351.50 353.00 L 351.00 353.50 L 350.50 354.00 L 350.50 355.00 L 350.50 356.00 L 350.00 356.50 L 349.50 357.00 L 349.50 358.00 L 349.50 359.00 L 349.00 359.50 L 348.50 360.00 L 348.50 361.00 L 348.50 362.00 L 348.00 362.50 L 347.50 363.00 L 347.50 364.00 L 347.00 364.50 L 346.50 365.00 L 346.50 366.00 L 346.50 367.00 L 346.00 367.50 L 345.50 368.00 L 345.50 369.00 L 345.00 369.50 L 344.50 370.00 L 344.50 371.00 L 344.00 371.50 L 343.50 372.00 L 343.50 373.00 L 343.00 373.50 L 342.50 374.00 L 342.50 375.00 L 342.00 375.50 L 341.50 376.00 L 341.50 377.00 L 341.00 377.50 L 340.50 378.00 L 340.00 378.50 L 339.50 379.00 L 339.50 380.00 L 339.00 380.50 L 338.50 381.00 L 338.50 382.00 L 338.00 382.50 L 337.50 383.00 L 337.00 383.50 L 336.50 384.00 L 336.50 385.00 L 336.00 385.50 L 335.50 386.00 L 335.00 386.50 L 334.50 387.00 L 334.50 388.00 L 334.00 388.50 L 333.50 389.00 L 333.00 389.50 L 332.50 390.00 L 332.00 390.50 L 331.50 391.00 L 331.50 392.00 L 331.00 392.50 L 330.50 393.00 L 330.00 393.50 L 329.50 394.00 L 329.00 394.50 L 328.50 395.00 L 328.00 395.50 L 327.50 396.00 L 327.50 397.00 L 327.00 397.50 L 326.50 398.00 L 326.00 398.50 L 325.50 399.00 L 325.00 399.50 L 324.50 400.00 L 324.00 400.50 L 323.50 401.00 L 323.00 401.50 L 322.50 402.00 L 322.00 402.50 L 321.50 403.00 L 321.00 403.50 L 320.50 404.00 L 320.00 404.50 L 319.50 405.00 L 319.00 405.50 L 318.50 406.00 L 318.00 406.50 L 317.50 407.00 L 317.00 407.50 L 316.50 408.00 L 316.00 408.50 L 315.50 409.00 L 315.00 409.50 L 314.00 409.50 L 313.50 410.00 L 313.00 410.50 L 312.50 411.00 L 312.00 411.50 L 311.50 412.00 L 311.00 412.50 L 310.50 413.00 L 310.00 413.50 L 309.50 414.00 L 309.00 414.50 L 308.00 414.50 L 307.50 415.00 L 307.00 415.50 L 306.50 416.00 L 306.00 416.50 L 305.00 416.50 L 304.50 417.00 L 304.00 417.50 L 303.50 418.00 L 303.00 418.50 L 302.50 419.00 L 302.00 419.50 L 301.00 419.50 L 300.50 420.00 L 300.00 420.50 L 299.00 420.50 L 298.50 421.00 L 298.00 421.50 L 297.50 422.00 L 297.00 422.50 L 296.00 422.50 L 295.50 423.00 L 295.00 423.50 L 294.00 423.50 L 293.50 424.00 L 293.00 424.50 L 292.00 424.50 L 291.50 425.00 L 291.00 425.50 L 290.00 425.50 L 289.50 426.00 L 289.00 426.50 L 288.00 426.50 L 287.50 427.00 L 287.00 427.50 L 286.00 427.50 L 285.00 427.50 L 284.50 428.00 L 284.00 428.50 L 283.00 428.50 L 282.50 429.00 L 282.00 429.50 L 281.00 429.50 L 280.00 429.50 L 279.50 430.00 L 279.00 430.50 L 278.00 430.50 L 277.00 430.50 L 276.50 431.00 L 276.00 431.50 L 275.00 431.50 L 274.00 431.50 L 273.50 432.00 L 273.00 432.50 L 272.00 432.50 L 271.00 432.50 L 270.50 433.00 L 270.00 433.50 L 269.00 433.50 L 268.00 433.50 L 267.00 433.50 L 266.50 434.00 L 266.00 434.50 L 265.00 434.50 L 264.00 434.50 L 263.00 434.50 L 262.00 434.50 L 261.50 435.00 L 261.00 435.50 L 260.00 435.50 L 259.00 435.50 L 258.00 435.50 L 257.00 435.50 L 256.00 435.50 L 255.50 436.00 L 255.00 436.50 L 254.00 436.50 L 253.00 436.50 L 252.00 436.50 L 251.00 436.50 L 250.00 436.50 L 249.00 436.50 L 248.00 436.50 L 247.00 436.50 L 246.50 437.00 L 246.00 437.50 Z" fill="#809463" fill-rule="evenodd"/>
</svg>
